<svg width="101.386" height="4" viewBox="0 0 101.386 4" xmlns="http://www.w3.org/2000/svg"><g fill="#fff" stroke="#000"><path d="M.232 3.09h.663v-.96h.19c.092 0 .166.021.22.065a.467.467 0 01.132.233 5.523 5.523 0 00.132.356 2.794 2.794 0 00.15.306h.729a3.38 3.38 0 01-.134-.234 8.1 8.1 0 01-.242-.508 5.631 5.631 0 01-.081-.2.469.469 0 00-.146-.212.63.63 0 00-.276-.1v-.04a.52.52 0 00.263-.1.553.553 0 00.143-.225 11.262 11.262 0 01.422-.89h-.69a1.36 1.36 0 00-.075.15 4.654 4.654 0 00-.203.558.49.49 0 01-.128.21.31.31 0 01-.217.073h-.19V.58H.233zM3.393 2.73a.287.287 0 01-.204-.074.247.247 0 01-.08-.19.265.265 0 01.126-.234.575.575 0 01.183-.071c.076-.019.172-.03.288-.035v.143a.94.94 0 01-.015.172.435.435 0 01-.054.147.314.314 0 01-.1.103.262.262 0 01-.144.039zm-.28.414a.677.677 0 00.405-.112.533.533 0 00.128-.118.887.887 0 00.091-.145l.05.027c-.015.049-.03.097-.042.145a.491.491 0 00-.02.126v.023h.616V1.742a1.02 1.02 0 00-.036-.282.496.496 0 00-.132-.221.625.625 0 00-.263-.144 1.524 1.524 0 00-.428-.05c-.176 0-.322.02-.44.058a.717.717 0 00-.277.155.485.485 0 00-.135.223.634.634 0 00-.016.261h.527a.378.378 0 01-.004-.12.218.218 0 01.04-.102.23.23 0 01.094-.072.362.362 0 01.149-.027c.098 0 .17.024.217.071.046.048.07.116.07.204v.14c-.127.004-.26.016-.4.034-.139.018-.267.053-.383.105a.73.73 0 00-.287.222.627.627 0 00-.112.393.557.557 0 00.153.38.589.589 0 00.436.174zM5.658 2.75c-.1 0-.183-.051-.248-.152-.064-.1-.096-.266-.096-.496 0-.232.032-.398.096-.5.065-.1.148-.15.248-.15.098 0 .18.05.244.15.065.102.097.268.097.5 0 .23-.032.395-.097.496-.064.1-.146.151-.244.151zm.236-1.705a.533.533 0 00-.46.232 2.07 2.07 0 00-.097.148l-.058-.027a1.03 1.03 0 00.046-.272v-.023H4.69V3.78h.635V3.2a.943.943 0 00-.021-.2 1.6 1.6 0 00-.052-.188l.062-.023a.669.669 0 00.187.223.68.68 0 00.169.094.59.59 0 00.22.04.73.73 0 00.305-.065.667.667 0 00.246-.193.962.962 0 00.164-.326c.04-.13.06-.283.06-.459 0-.34-.068-.602-.205-.784a.668.668 0 00-.566-.273zM7.281 3.09h.635V1.607h.48v-.504H6.801v.504h.48zM9.4 2.73a.287.287 0 01-.204-.074.247.247 0 01-.08-.19.265.265 0 01.126-.234.575.575 0 01.183-.071c.076-.019.172-.03.288-.035v.143a.94.94 0 01-.015.172.435.435 0 01-.055.147.314.314 0 01-.098.103.262.262 0 01-.146.039zm-.28.414a.677.677 0 00.405-.112.533.533 0 00.128-.118.887.887 0 00.091-.145l.05.027c-.015.049-.03.097-.042.145a.491.491 0 00-.02.126v.023h.616V1.742a1.02 1.02 0 00-.037-.282.496.496 0 00-.131-.221.625.625 0 00-.264-.144 1.524 1.524 0 00-.428-.05c-.175 0-.322.02-.44.058a.717.717 0 00-.276.155.485.485 0 00-.136.223.634.634 0 00-.015.261h.527a.378.378 0 01-.004-.12.218.218 0 01.04-.102.23.23 0 01.093-.072.362.362 0 01.15-.027c.098 0 .17.024.216.071.047.048.07.116.07.204v.14c-.126.004-.26.016-.399.034-.14.018-.267.053-.383.105a.73.73 0 00-.287.222.627.627 0 00-.112.393.557.557 0 00.153.38.589.589 0 00.436.174zM13.183 2.308h0-.534a.598.598 0 01-.002.222.263.263 0 01-.068.128.238.238 0 01-.106.06.47.47 0 01-.281-.011.234.234 0 01-.114-.1.574.574 0 01-.068-.195 1.777 1.777 0 01-.024-.317c0-.124.008-.227.022-.308a.6.6 0 01.064-.196.232.232 0 01.112-.102.484.484 0 01.294-.012.22.22 0 01.105.064c.028.03.049.073.062.126a.495.495 0 01-.004.203h.534c.031-.258-.025-.46-.168-.606-.143-.146-.363-.219-.66-.219-.158 0-.3.021-.428.064a.841.841 0 00-.326.194.853.853 0 00-.205.327 1.363 1.363 0 00-.072.465c0 .18.024.337.072.468.048.132.116.241.205.328.09.086.198.15.326.191.128.042.27.062.428.062.16 0 .296-.021.408-.064a.692.692 0 00.271-.176.591.591 0 00.14-.265.964.964 0 00.017-.331zM14.655 1.82H14.6v-.05c0-.104.007-.196.023-.278a.62.62 0 01.081-.214.498.498 0 01.159-.157.872.872 0 01.256-.103c.07-.018.135-.033.197-.045l.184-.034c.06-.012.121-.026.182-.041.06-.016.122-.035.184-.058L15.832.25a3.866 3.866 0 01-.153.062c-.047.018-.1.035-.157.05-.056.016-.12.031-.191.047l-.262.058a1.26 1.26 0 00-.463.19.978.978 0 00-.284.308c-.07.12-.118.256-.143.408a2.92 2.92 0 00.015 1.025c.036.158.094.293.172.402.08.11.182.195.308.254.127.06.28.09.457.09a1 1 0 00.41-.08.86.86 0 00.481-.533c.041-.121.062-.25.062-.387 0-.13-.017-.248-.05-.358a.858.858 0 00-.144-.283.661.661 0 00-.542-.254.865.865 0 00-.28.041.59.59 0 00-.202.114.583.583 0 00-.136.178.86.86 0 00-.075.237zm.453.817c-.103 0-.18-.032-.228-.097-.05-.065-.074-.173-.074-.325 0-.155.026-.269.077-.341a.259.259 0 01.225-.109c.103 0 .18.034.23.101.05.067.076.177.076.33 0 .154-.026.267-.077.336-.052.07-.128.105-.229.105zM18.222 2.428h-.55c.01.121-.014.206-.074.255a.372.372 0 01-.244.074.311.311 0 01-.168-.043.334.334 0 01-.11-.114.531.531 0 01-.063-.166 1.017 1.017 0 01-.019-.204h1.232c.007-.044.013-.097.015-.159.003-.062.004-.11.004-.147 0-.116-.015-.227-.045-.333a.715.715 0 00-.15-.28.736.736 0 00-.281-.194 1.134 1.134 0 00-.43-.072c-.178 0-.33.029-.457.085a.84.84 0 00-.312.235.953.953 0 00-.178.344c-.038.13-.056.27-.056.417 0 .15.02.286.058.41a.804.804 0 00.486.533c.125.05.274.075.447.075a1.5 1.5 0 00.397-.048.802.802 0 00.293-.142.555.555 0 00.205-.526zm-.868-1.007c.116 0 .197.037.24.11a.66.66 0 01.066.331v.02h-.666a.586.586 0 01.093-.337c.06-.083.148-.124.267-.124zM20.363 2.308h0-.534a.598.598 0 01-.002.222.263.263 0 01-.068.128.238.238 0 01-.106.06.47.47 0 01-.281-.011.234.234 0 01-.114-.1.574.574 0 01-.068-.195 1.777 1.777 0 01-.023-.317c0-.124.007-.227.021-.308a.6.6 0 01.064-.196.232.232 0 01.112-.102.484.484 0 01.294-.012.22.22 0 01.105.064c.029.03.05.073.062.126a.495.495 0 01-.004.203h.535c.03-.258-.025-.46-.169-.606-.143-.146-.363-.219-.66-.219-.158 0-.3.021-.428.064a.841.841 0 00-.325.194.853.853 0 00-.206.327 1.363 1.363 0 00-.071.465c0 .18.024.337.071.468.048.132.117.241.206.328.089.086.197.15.325.191.128.042.27.062.428.062.16 0 .296-.021.409-.064a.692.692 0 00.27-.176.591.591 0 00.14-.265.964.964 0 00.017-.331zM20.681 3.09h.635V1.607h.535V3.09h.635V1.103H20.68zM22.718 2.598h0v.488c.212.029.381.03.508.002a.44.44 0 00.29-.197c.067-.105.111-.254.132-.448a7.36 7.36 0 00.03-.751v-.143h.345V3.09h.635V1.103h-1.587v.488c0 .24-.005.43-.014.568a1.244 1.244 0 01-.05.311c-.025.07-.06.112-.107.126a.403.403 0 01-.182.002zM25.816 2.73a.287.287 0 01-.203-.074.247.247 0 01-.08-.19.265.265 0 01.126-.234.575.575 0 01.183-.071c.076-.019.172-.03.288-.035v.143a.94.94 0 01-.015.172.435.435 0 01-.055.147.314.314 0 01-.098.103.262.262 0 01-.146.039zm-.278.414a.677.677 0 00.405-.112.533.533 0 00.127-.118.887.887 0 00.091-.145l.05.027c-.015.049-.03.097-.042.145a.491.491 0 00-.02.126v.023h.616V1.742a1.02 1.02 0 00-.036-.282.496.496 0 00-.132-.221.625.625 0 00-.264-.144 1.524 1.524 0 00-.427-.05c-.176 0-.323.02-.44.058a.717.717 0 00-.277.155.485.485 0 00-.135.223.634.634 0 00-.016.261h.527a.378.378 0 01-.004-.12.218.218 0 01.04-.102.23.23 0 01.093-.072.362.362 0 01.15-.027c.098 0 .17.024.216.071.047.048.07.116.07.204v.14c-.126.004-.26.016-.399.034-.14.018-.267.053-.383.105a.73.73 0 00-.287.222.627.627 0 00-.112.393.557.557 0 00.153.38.589.589 0 00.436.174zM27.459 3.09h.635V1.607h.48v-.504h-1.596v.504h.48zM28.826 3.09h.635v-.744h.57v.744h.634V1.103h-.635v.74h-.57v-.74h-.634zM32.97 3.09h.635V1.103h-.635zm-1.282-1.468v-.519h-.635V3.09h.855c.17 0 .312-.024.425-.072a.774.774 0 00.269-.18.643.643 0 00.143-.238.79.79 0 00.043-.246c0-.1-.014-.195-.041-.284a.533.533 0 00-.143-.233.726.726 0 00-.271-.157 1.318 1.318 0 00-.425-.058zm.178.988h-.178v-.508h.178c.082 0 .148.02.197.06.05.04.074.106.074.196 0 .09-.025.155-.074.194a.31.31 0 01-.197.058zM34.751 2.226l.159.643h.647l.158-.643a4.462 4.462 0 00.117-.677h.05a2.244 2.244 0 00-.012.172 6.703 6.703 0 00.002.536c.004.106.011.216.022.33l.042.503h.597l-.144-1.987h-.871l-.17.775c-.013.054-.024.11-.033.168a32.337 32.337 0 00-.045.31 1 1 0 00-.008.107h-.058a1 1 0 00-.007-.107 4.15 4.15 0 00-.047-.31l-.03-.168-.171-.775h-.872l-.143 1.987h.596l.043-.503a6.091 6.091 0 00.027-.624c0-.09-.001-.171-.004-.242a2.244 2.244 0 00-.011-.172h.05a4.22 4.22 0 00.116.677zM38.5 3.148c.328 0 .578-.09.751-.27.173-.179.26-.439.26-.78 0-.34-.087-.601-.26-.782-.173-.18-.423-.27-.75-.27-.334 0-.587.09-.76.27-.173.181-.26.442-.26.783 0 .34.087.6.26.78.173.18.426.27.76.27zm0-.41a.36.36 0 01-.155-.031.25.25 0 01-.108-.103.579.579 0 01-.064-.196 1.875 1.875 0 01-.021-.31c0-.12.007-.222.02-.303a.623.623 0 01.065-.198.258.258 0 01.108-.108.342.342 0 01.155-.033c.057 0 .107.01.15.033a.261.261 0 01.106.108c.028.05.05.116.064.198.014.08.02.182.02.304 0 .123-.006.227-.02.31a.579.579 0 01-.064.195.253.253 0 01-.107.103.338.338 0 01-.149.03zM40.278 1.82h-.055v-.05c0-.104.008-.196.024-.278a.62.62 0 01.081-.214.498.498 0 01.159-.157.872.872 0 01.255-.103c.07-.018.136-.033.198-.045l.184-.034c.06-.012.121-.026.182-.041.06-.016.122-.035.184-.058L41.455.25a3.866 3.866 0 01-.153.062c-.048.018-.1.035-.157.05-.057.016-.12.031-.191.047l-.262.058a1.26 1.26 0 00-.463.19.978.978 0 00-.284.308c-.07.12-.118.256-.144.408a2.92 2.92 0 00.016 1.025c.036.158.093.293.172.402.079.11.182.195.308.254.127.06.279.09.457.09a1 1 0 00.41-.08.86.86 0 00.48-.533c.042-.121.063-.25.063-.387 0-.13-.017-.248-.05-.358a.858.858 0 00-.144-.283.661.661 0 00-.542-.254.865.865 0 00-.28.041.59.59 0 00-.202.114.583.583 0 00-.136.178.86.86 0 00-.075.237zm.453.817c-.103 0-.18-.032-.229-.097-.049-.065-.073-.173-.073-.325 0-.155.026-.269.077-.341a.259.259 0 01.225-.109c.103 0 .18.034.23.101.05.067.076.177.076.33 0 .154-.026.267-.078.336-.051.07-.127.105-.228.105zM43.825 2.308h0-.534a.598.598 0 01-.002.222.263.263 0 01-.068.128.238.238 0 01-.106.06.47.47 0 01-.281-.011.234.234 0 01-.114-.1.574.574 0 01-.068-.195 1.777 1.777 0 01-.023-.317c0-.124.007-.227.02-.308a.6.6 0 01.065-.196.232.232 0 01.112-.102.484.484 0 01.294-.012.22.22 0 01.105.064c.028.03.049.073.062.126a.495.495 0 01-.004.203h.535c.03-.258-.026-.46-.169-.606-.143-.146-.363-.219-.66-.219-.158 0-.3.021-.428.064a.841.841 0 00-.326.194.853.853 0 00-.205.327 1.363 1.363 0 00-.071.465c0 .18.023.337.071.468.048.132.116.241.205.328.09.086.198.15.326.191.128.042.27.062.428.062.16 0 .296-.021.408-.064a.692.692 0 00.271-.176.591.591 0 00.14-.265.964.964 0 00.017-.331zM43.988 2.598h0v.488c.212.029.38.03.507.002a.44.44 0 00.29-.197c.068-.105.112-.254.132-.448a7.36 7.36 0 00.031-.751v-.143h.345V3.09h.635V1.103H44.34v.488c0 .24-.004.43-.013.568a1.244 1.244 0 01-.05.311c-.025.07-.06.112-.107.126a.403.403 0 01-.182.002zM47.171 2.64h0-.058c0-.033-.004-.087-.013-.162a4.413 4.413 0 00-.043-.27 10.12 10.12 0 00-.172-.748l-.1-.357h-.644l.67 2.239-.143.437h.666l.802-2.676h-.628l-.1.368a7.69 7.69 0 00-.173.736 5.749 5.749 0 00-.064.434zM50.037 1.103h-.635v.74h-.104c-.042 0-.073-.01-.095-.03a.259.259 0 01-.06-.11 6.628 6.628 0 00-.109-.29 6.123 6.123 0 00-.077-.178.725.725 0 00-.074-.132h-.685a.657.657 0 01.112.151c.031.057.058.116.081.178.024.062.047.126.07.19.023.065.05.125.078.182a.474.474 0 00.133.173c.05.037.117.065.2.083v.035a.49.49 0 00-.223.089.455.455 0 00-.126.193c-.044.117-.094.24-.15.37-.055.13-.121.245-.199.343h.678a.588.588 0 00.068-.12c.025-.054.048-.112.07-.174a3.949 3.949 0 00.095-.306.223.223 0 01.052-.105c.024-.026.062-.039.114-.039h.151v.744h.635v-.744h.132c.052 0 .09.013.114.04.025.025.042.06.053.104a2.978 2.978 0 00.094.306c.022.062.046.12.07.174a.588.588 0 00.068.12h.697a1.493 1.493 0 01-.2-.343 9.696 9.696 0 01-.149-.37.455.455 0 00-.125-.193.49.49 0 00-.223-.09V2.06a.517.517 0 00.2-.083.474.474 0 00.133-.173 1.68 1.68 0 00.077-.182l.07-.19c.023-.062.05-.12.081-.178a.657.657 0 01.113-.15h-.674a.725.725 0 00-.074.13 6.123 6.123 0 00-.145.353c-.02.055-.033.093-.04.117a.259.259 0 01-.06.11c-.023.02-.054.029-.096.029h-.116zM51.478 3.09h.81l.274-.608a6.677 6.677 0 00.2-.517 6.207 6.207 0 00.126-.409l.054.008a7.084 7.084 0 00-.09.926v.6h.613V1.103h-.806l-.275.608c-.036.08-.071.166-.106.258a10.138 10.138 0 00-.175.501 5.488 5.488 0 00-.048.167l-.05-.008a3.92 3.92 0 00.054-.42c.008-.09.015-.179.021-.27.007-.09.01-.17.01-.243v-.593h-.612zM53.852 1.103V3.09h.957c.11 0 .217-.008.317-.025a.82.82 0 00.264-.087.491.491 0 00.18-.169.5.5 0 00.067-.273.47.47 0 00-.025-.149.377.377 0 00-.085-.14.488.488 0 00-.16-.108.705.705 0 00-.248-.052V2.04a.71.71 0 00.205-.07.43.43 0 00.24-.376c0-.18-.066-.307-.198-.38-.131-.074-.31-.11-.534-.11zm.926 1.588h-.31V2.3h.317a.33.33 0 01.165.043c.05.028.076.078.076.15 0 .07-.023.12-.068.152a.313.313 0 01-.18.046zm-.074-.79h-.236v-.403h.267c.06 0 .11.014.153.043.043.028.064.077.064.147 0 .072-.025.126-.074.16a.293.293 0 01-.174.053zM56.699 2.73a.287.287 0 01-.204-.074.247.247 0 01-.08-.19.265.265 0 01.126-.234.575.575 0 01.183-.071c.076-.019.172-.03.288-.035v.143a.94.94 0 01-.015.172.435.435 0 01-.054.147.314.314 0 01-.1.103.262.262 0 01-.144.039zm-.28.414a.677.677 0 00.405-.112.533.533 0 00.128-.118.887.887 0 00.091-.145l.05.027-.042.145a.491.491 0 00-.02.126v.023h.616V1.742a1.02 1.02 0 00-.036-.282.496.496 0 00-.132-.221.625.625 0 00-.263-.144 1.524 1.524 0 00-.428-.05c-.176 0-.322.02-.44.058a.717.717 0 00-.277.155.485.485 0 00-.135.223.634.634 0 00-.016.261h.527a.378.378 0 01-.004-.12.218.218 0 01.04-.102.23.23 0 01.094-.072.362.362 0 01.149-.027c.098 0 .17.024.217.071.046.048.07.116.07.204v.14c-.127.004-.26.016-.4.034-.139.018-.267.053-.383.105a.73.73 0 00-.287.222.627.627 0 00-.112.393.557.557 0 00.153.38.589.589 0 00.436.174zM57.996 3.09h.635v-.744h.57v.744h.635V1.103H59.2v.74h-.569v-.74h-.635zM60.223 3.09h.81l.274-.608a6.677 6.677 0 00.2-.517 6.207 6.207 0 00.126-.409l.054.008a7.084 7.084 0 00-.09.926v.6h.613V1.103h-.806l-.275.608c-.036.08-.071.166-.106.258a10.138 10.138 0 00-.175.501 5.488 5.488 0 00-.048.167l-.05-.008a3.92 3.92 0 00.054-.42c.008-.09.015-.179.021-.27.007-.09.01-.17.01-.243v-.593h-.612zM64.406 2.428h-.55c.01.121-.015.206-.074.255a.372.372 0 01-.244.074.311.311 0 01-.168-.043.334.334 0 01-.11-.114.531.531 0 01-.063-.166 1.017 1.017 0 01-.02-.204h1.232c.008-.044.013-.097.016-.159.003-.062.004-.11.004-.147 0-.116-.015-.227-.045-.333a.715.715 0 00-.15-.28.736.736 0 00-.282-.194 1.134 1.134 0 00-.43-.072c-.178 0-.33.029-.456.085a.84.84 0 00-.312.235.953.953 0 00-.178.344c-.038.13-.056.27-.056.417 0 .15.019.286.058.41a.804.804 0 00.486.533c.125.05.274.075.447.075a1.5 1.5 0 00.397-.048.802.802 0 00.292-.142.555.555 0 00.206-.526zm-.868-1.007c.116 0 .196.037.24.11a.66.66 0 01.066.331v.02h-.666a.586.586 0 01.093-.337c.06-.083.148-.124.267-.124zM65.459 2.226l.159.643h.647l.158-.643a4.462 4.462 0 00.117-.677h.05a2.244 2.244 0 00-.012.172 6.703 6.703 0 00.002.536c.004.106.011.216.022.33l.042.503h.597l-.144-1.987h-.871l-.17.775c-.013.054-.024.11-.033.168a32.337 32.337 0 00-.045.31 1 1 0 00-.008.107h-.058a1 1 0 00-.008-.107 4.15 4.15 0 00-.046-.31c-.01-.058-.02-.114-.031-.168l-.17-.775h-.872l-.143 1.987h.596l.043-.503a6.091 6.091 0 00.027-.624c0-.09-.001-.171-.004-.242a2.244 2.244 0 00-.012-.172h.05a4.22 4.22 0 00.117.677z" stroke-width=".00387"/></g><g fill="#fff" stroke="#000"><path d="M68.267 3.09h.635v-.744h.57v.744h.634V1.103h-.635v.74h-.569v-.74h-.635zM71.264 2.73a.287.287 0 01-.203-.074.247.247 0 01-.08-.19.265.265 0 01.126-.234.575.575 0 01.183-.071c.076-.019.172-.03.288-.035v.143a.94.94 0 01-.015.172.435.435 0 01-.055.147.314.314 0 01-.098.103.262.262 0 01-.146.039zm-.278.414a.677.677 0 00.405-.112.533.533 0 00.127-.118.887.887 0 00.091-.145l.05.027c-.015.049-.03.097-.042.145a.491.491 0 00-.02.126v.023h.616V1.742a1.02 1.02 0 00-.036-.282.496.496 0 00-.132-.221.625.625 0 00-.264-.144 1.524 1.524 0 00-.427-.05c-.176 0-.323.02-.44.058a.717.717 0 00-.277.155.485.485 0 00-.136.223.634.634 0 00-.015.261h.527a.378.378 0 01-.004-.12.218.218 0 01.04-.102.23.23 0 01.093-.072.362.362 0 01.15-.027c.098 0 .17.024.216.071.047.048.07.116.07.204v.14c-.126.004-.26.016-.399.034-.14.018-.267.053-.383.105a.73.73 0 00-.287.222.627.627 0 00-.112.393.557.557 0 00.153.38.589.589 0 00.436.174zM72.562 1.103V3.09h.956c.111 0 .217-.008.318-.025a.82.82 0 00.263-.087.491.491 0 00.18-.169.5.5 0 00.068-.273.47.47 0 00-.025-.149.377.377 0 00-.085-.14.488.488 0 00-.16-.108.705.705 0 00-.249-.052V2.04a.71.71 0 00.206-.07.43.43 0 00.24-.376c0-.18-.066-.307-.198-.38-.132-.074-.31-.11-.534-.11zm.925 1.588h-.31V2.3h.318a.33.33 0 01.165.043c.05.028.075.078.075.15 0 .07-.022.12-.067.152a.313.313 0 01-.18.046zm-.073-.79h-.236v-.403h.267c.06 0 .11.014.153.043.042.028.064.077.064.147 0 .072-.025.126-.074.16a.293.293 0 01-.174.053zM76.427 2.308h0-.534a.598.598 0 01-.002.222.263.263 0 01-.068.128.238.238 0 01-.107.06.47.47 0 01-.28-.011.234.234 0 01-.115-.1.574.574 0 01-.068-.195 1.777 1.777 0 01-.023-.317c0-.124.007-.227.022-.308a.6.6 0 01.063-.196.232.232 0 01.113-.102.484.484 0 01.294-.012.22.22 0 01.105.064c.028.03.049.073.062.126a.495.495 0 01-.004.203h.534c.031-.258-.025-.46-.168-.606-.144-.146-.364-.219-.66-.219-.158 0-.3.021-.429.064a.841.841 0 00-.325.194.853.853 0 00-.205.327 1.363 1.363 0 00-.072.465c0 .18.024.337.072.468.048.132.116.241.205.328.09.086.198.15.325.191.128.042.27.062.428.062.16 0 .297-.021.409-.064a.692.692 0 00.271-.176.591.591 0 00.14-.265.964.964 0 00.017-.331zM78.573 2.428h-.55c.01.121-.015.206-.074.255a.372.372 0 01-.244.074.311.311 0 01-.168-.043.334.334 0 01-.11-.114.531.531 0 01-.063-.166 1.017 1.017 0 01-.02-.204h1.232c.008-.044.013-.097.016-.159.002-.062.004-.11.004-.147 0-.116-.015-.227-.045-.333a.715.715 0 00-.15-.28.736.736 0 00-.282-.194 1.134 1.134 0 00-.43-.072c-.178 0-.33.029-.456.085a.84.84 0 00-.312.235.953.953 0 00-.178.344c-.038.13-.057.27-.057.417 0 .15.02.286.059.41a.804.804 0 00.486.533c.125.05.274.075.447.075a1.5 1.5 0 00.397-.048.802.802 0 00.292-.142.555.555 0 00.206-.526zm-.868-1.007c.116 0 .196.037.24.11a.66.66 0 01.066.331v.02h-.666a.586.586 0 01.093-.337c.06-.083.148-.124.267-.124zM78.906 3.09h.635V1.607h.681v-.504h-1.316zM82.387 2.587h-.209V1.103H80.59v.511c0 .104-.003.212-.01.326a1.637 1.637 0 01-.046.313.666.666 0 01-.108.239.228.228 0 01-.192.095h-.031v.983h.585v-.48h1.014v.48h.585zm-.844 0h-.69v-.04a.487.487 0 00.163-.115.468.468 0 00.095-.18c.022-.074.036-.163.043-.268.006-.104.01-.23.01-.377h.379zM83.41 2.73a.287.287 0 01-.204-.074.247.247 0 01-.079-.19.265.265 0 01.126-.234.575.575 0 01.182-.071c.076-.019.172-.03.288-.035v.143a.94.94 0 01-.015.172.435.435 0 01-.054.147.314.314 0 01-.099.103.262.262 0 01-.145.039zm-.28.414a.677.677 0 00.405-.112.533.533 0 00.128-.118.887.887 0 00.091-.145l.05.027-.042.145a.491.491 0 00-.02.126v.023h.617V1.742a1.02 1.02 0 00-.037-.282.496.496 0 00-.132-.221.625.625 0 00-.263-.144 1.524 1.524 0 00-.428-.05c-.176 0-.322.02-.44.058a.717.717 0 00-.277.155.485.485 0 00-.135.223.634.634 0 00-.016.261h.527a.378.378 0 01-.004-.12.218.218 0 01.04-.102.23.23 0 01.094-.072.362.362 0 01.149-.027c.098 0 .17.024.217.071.046.048.07.116.07.204v.14c-.127.004-.26.016-.4.034-.139.018-.267.053-.383.105a.73.73 0 00-.286.222.627.627 0 00-.113.393.557.557 0 00.153.38.589.589 0 00.436.174z" stroke-width=".00387"/></g></svg>