<svg width="38.21" height="10" viewBox="0 0 38.21 10" xmlns="http://www.w3.org/2000/svg"><g fill="#fff" stroke="#000"><path d="M2.693 1.522c0-.188-.035-.335-.104-.442a.676.676 0 00-.262-.24.942.942 0 00-.345-.097A3.902 3.902 0 001.63.726H.291V3.87h1.412c.146 0 .284-.013.415-.039a.988.988 0 00.344-.133.677.677 0 00.236-.26.875.875 0 00.087-.412.913.913 0 00-.034-.248.68.68 0 00-.291-.398.796.796 0 00-.262-.106V2.23a.64.64 0 00.476-.517c.012-.07.019-.133.019-.191zM1.645 3.239H1.12v-.645h.524c.123 0 .219.022.289.065.07.044.104.127.104.25 0 .13-.038.217-.114.262a.536.536 0 01-.28.068zM1.12 1.357h.437c.135 0 .236.034.3.102a.323.323 0 01.097.228c0 .084-.032.159-.097.225-.064.067-.165.1-.3.1H1.12zM4.09 3.419a.36.36 0 01-.254-.092.31.31 0 01-.1-.238.332.332 0 01.158-.294.72.72 0 01.228-.09c.095-.022.216-.037.361-.043v.18c0 .074-.006.146-.02.215a.545.545 0 01-.067.185.393.393 0 01-.124.128.328.328 0 01-.182.049zm-.349.519c.11 0 .206-.013.289-.039a.849.849 0 00.218-.102.668.668 0 00.16-.148c.044-.056.082-.117.114-.182l.063.034c-.02.062-.037.122-.053.182a.616.616 0 00-.024.158v.029h.771V2.181c0-.129-.015-.247-.046-.354a.622.622 0 00-.165-.276.783.783 0 00-.33-.18 1.909 1.909 0 00-.536-.063c-.22 0-.404.024-.55.073a.898.898 0 00-.348.194.608.608 0 00-.17.279.794.794 0 00-.019.327h.66a.473.473 0 01-.005-.15.273.273 0 01.051-.129.289.289 0 01.116-.09.453.453 0 01.187-.033c.123 0 .214.03.272.09.058.06.087.144.087.254v.175a5.691 5.691 0 00-.5.044 1.722 1.722 0 00-.48.13.915.915 0 00-.359.28c-.094.12-.14.285-.14.492a.698.698 0 00.191.476.737.737 0 00.546.218zM9.044 3.87V1.38H8.25v1.86h-.471V1.38h-.796v1.86h-.47V1.38h-.796v2.49zM10.403 3.87h.796V2.012h.67V3.87h.795V1.38h-2.261zM14.328 3.943c.411 0 .725-.113.942-.337.216-.225.325-.551.325-.978 0-.427-.109-.754-.325-.98-.217-.227-.53-.34-.942-.34-.417 0-.734.113-.95.34-.217.226-.326.553-.326.98 0 .427.109.753.325.978.217.224.534.337.951.337zm0-.515a.452.452 0 01-.194-.038.314.314 0 01-.136-.129.725.725 0 01-.08-.245 2.349 2.349 0 01-.026-.388c0-.152.008-.28.026-.381a.78.78 0 01.08-.247.323.323 0 01.136-.136.429.429 0 01.194-.042c.071 0 .134.014.187.042A.328.328 0 0114.65 2a.78.78 0 01.08.247c.017.102.026.229.026.38 0 .156-.009.286-.026.389a.725.725 0 01-.08.245.317.317 0 01-.134.129.424.424 0 01-.187.038zM18.249 2.89h0-.67a.75.75 0 01-.002.279.33.33 0 01-.085.16.298.298 0 01-.134.075.59.59 0 01-.351-.014.293.293 0 01-.143-.124.719.719 0 01-.085-.245 2.226 2.226 0 01-.03-.398c0-.155.01-.284.027-.386a.751.751 0 01.08-.245.291.291 0 01.14-.128.607.607 0 01.369-.015.275.275 0 01.132.08.352.352 0 01.077.158.62.62 0 01-.005.255h.67c.039-.324-.031-.577-.211-.76-.18-.183-.455-.274-.827-.274-.198 0-.376.027-.536.08-.16.054-.296.134-.408.243a1.069 1.069 0 00-.257.41c-.06.165-.09.359-.09.582 0 .226.03.422.09.587.06.165.145.302.257.41.112.108.247.189.408.24.16.052.338.078.536.078.2 0 .37-.027.512-.08a.867.867 0 00.34-.22.74.74 0 00.174-.333c.03-.128.038-.266.022-.415zM19.03 3.87h.796V2.012h.601V1.38h-1.999v.63h.602zM21.873 3.943c.411 0 .725-.113.942-.337.216-.225.325-.551.325-.978 0-.427-.109-.754-.325-.98-.217-.227-.53-.34-.942-.34-.417 0-.734.113-.95.34-.217.226-.326.553-.326.98 0 .427.109.753.325.978.217.224.534.337.951.337zm0-.515a.452.452 0 01-.194-.038.314.314 0 01-.136-.129.725.725 0 01-.08-.245 2.349 2.349 0 01-.026-.388c0-.152.009-.28.026-.381a.78.78 0 01.08-.247.323.323 0 01.136-.136.429.429 0 01.194-.042c.071 0 .134.014.187.042a.328.328 0 01.134.136.78.78 0 01.08.247c.017.102.026.229.026.38 0 .156-.009.286-.026.389a.725.725 0 01-.08.245.317.317 0 01-.134.129.424.424 0 01-.187.038zM24.193 2.186c0-.106.029-.184.087-.233a.309.309 0 01.204-.072h.34v.587h-.316a.34.34 0 01-.218-.078.248.248 0 01-.097-.204zM23.26 3.87h.85c.044-.103.086-.202.123-.296.037-.094.064-.188.08-.281.023-.117.056-.197.1-.24.043-.044.109-.066.196-.066h.213v.883h.796V1.38h-1.324c-.117 0-.23.015-.338.045a.923.923 0 00-.288.13.627.627 0 00-.277.534.6.6 0 00.041.219.543.543 0 00.131.194c.06.058.139.106.236.145.097.04.213.062.349.068v.063a.66.66 0 00-.39.143.724.724 0 00-.212.328l-.063.177a2.681 2.681 0 01-.15.34.474.474 0 01-.073.104zM26.104 3.87h.796v-.932h.713v.932h.796V1.38h-.796v.928H26.9V1.38h-.796zM28.894 3.87h.796v-.932h.713v.932h.796V1.38h-.796v.928h-.713V1.38h-.796zM34.086 3.87h.796V1.38h-.796zM32.48 2.031v-.65h-.796V3.87h1.073c.213 0 .39-.03.53-.09a.97.97 0 00.338-.225.806.806 0 00.18-.299.989.989 0 00.053-.308c0-.126-.017-.245-.05-.357a.668.668 0 00-.18-.29.91.91 0 00-.34-.197 1.651 1.651 0 00-.531-.073zm.223 1.237h-.223v-.635h.223a.38.38 0 01.248.075c.061.05.092.132.092.245 0 .113-.03.194-.092.243a.389.389 0 01-.248.072zM35.367 3.87h1.014l.345-.762a8.366 8.366 0 00.25-.648 7.776 7.776 0 00.157-.511l.068.01c-.01.051-.02.124-.034.218a8.876 8.876 0 00-.077.94v.753h.766V1.38h-1.01l-.344.763c-.045.1-.09.207-.133.322a12.701 12.701 0 00-.218.629c-.028.09-.048.16-.061.208l-.063-.01c.01-.051.02-.124.034-.218a6.17 6.17 0 00.034-.308c.01-.111.018-.224.027-.337a4.32 4.32 0 00.012-.306v-.742h-.767zm.442-3.324v.53a4.055 4.055 0 00.771.077 3.821 3.821 0 00.776-.078V.546a4.127 4.127 0 01-1.548 0z" stroke-width=".00485"/></g><g fill="#fff" stroke="#000"><path d="M2.484 7.74h0-.67a.75.75 0 01-.002.279.33.33 0 01-.085.16.298.298 0 01-.133.075.59.59 0 01-.352-.014.293.293 0 01-.143-.124.719.719 0 01-.085-.245 2.226 2.226 0 01-.029-.398c0-.155.009-.284.027-.386a.751.751 0 01.08-.245.291.291 0 01.14-.128.607.607 0 01.369-.015.275.275 0 01.131.08.352.352 0 01.078.158.62.62 0 01-.005.255h.67c.038-.324-.032-.577-.211-.76-.18-.183-.456-.274-.828-.274-.197 0-.376.027-.536.08-.16.054-.296.134-.408.243a1.069 1.069 0 00-.257.41c-.06.165-.09.359-.09.582 0 .226.03.422.09.587.06.165.146.302.257.41.112.108.248.189.408.24.16.052.339.078.536.078.2 0 .371-.027.512-.08a.867.867 0 00.34-.22.74.74 0 00.174-.333c.031-.128.038-.266.022-.415zM2.882 8.72h.796V6.862h.67V8.72h.795V6.23h-2.26zM6.7 8.157h0-.072c0-.042-.006-.11-.017-.204a5.53 5.53 0 00-.053-.337 9.905 9.905 0 00-.216-.939l-.126-.446H5.41l.84 2.804-.18.549h.835L7.909 6.23h-.786l-.126.46a9.635 9.635 0 00-.216.923 7.203 7.203 0 00-.08.543zM8.608 8.72h.795V6.862h.602V6.23H8.006v.63h.602zM10.32 8.72h.796v-.932h.713v.932h.796V6.23h-.796v.928h-.713V6.23h-.796zM13.11 8.72h1.014l.345-.762a8.366 8.366 0 00.25-.648 7.776 7.776 0 00.158-.511l.068.01a8.876 8.876 0 00-.112 1.16v.751h.767V6.23h-1.01l-.344.763c-.045.1-.09.207-.134.322a12.701 12.701 0 00-.218.629c-.027.09-.048.16-.06.208l-.064-.01a6.17 6.17 0 00.068-.526c.01-.111.019-.224.027-.337a4.32 4.32 0 00.012-.306v-.742h-.767zM16.085 8.72h.795v-.932h.214c.065 0 .112.017.143.049.03.032.053.076.066.13a4.947 4.947 0 00.119.383c.027.079.056.152.087.22.03.068.059.118.085.15h.873a1.87 1.87 0 01-.25-.43c-.07-.163-.132-.317-.187-.463a.57.57 0 00-.157-.242.613.613 0 00-.28-.112v-.044a.647.647 0 00.25-.104.593.593 0 00.168-.216c.036-.071.068-.147.097-.228l.087-.238c.03-.077.063-.152.102-.223a.823.823 0 01.141-.19h-.844a.909.909 0 00-.092.166 7.671 7.671 0 00-.182.441 8.304 8.304 0 00-.051.146.324.324 0 01-.076.138c-.027.024-.067.037-.118.037h-.195V6.23h-.795z" stroke-width=".00485"/></g></svg>