<svg width="64.594" height="8" viewBox="0 0 64.594 8" xmlns="http://www.w3.org/2000/svg"><g fill="#fff" stroke="#000"><path d="M.237 3.15h.675v-.979h.193c.095 0 .17.022.225.067.055.045.1.124.134.237a5.629 5.629 0 00.134.363 2.848 2.848 0 00.155.312h.742a3.446 3.446 0 01-.137-.239 8.255 8.255 0 01-.246-.517 5.74 5.74 0 01-.083-.203.478.478 0 00-.148-.217.641.641 0 00-.282-.103v-.04a.53.53 0 00.268-.102.564.564 0 00.146-.229 11.479 11.479 0 01.43-.908h-.702c-.024.04-.05.091-.077.154a4.744 4.744 0 00-.207.569.499.499 0 01-.13.213.317.317 0 01-.222.075H.912V.593H.237zM3.458 2.783a.293.293 0 01-.207-.075.252.252 0 01-.081-.193.27.27 0 01.128-.239.586.586 0 01.185-.073c.078-.019.176-.03.294-.036v.146c0 .06-.005.12-.015.176a.443.443 0 01-.056.15.32.32 0 01-.1.104.267.267 0 01-.148.04zm-.284.422a.69.69 0 00.412-.114.544.544 0 00.13-.12.904.904 0 00.093-.149l.051.028-.043.148a.5.5 0 00-.02.128v.024h.628V1.776a1.04 1.04 0 00-.038-.288.506.506 0 00-.134-.225.637.637 0 00-.268-.146 1.553 1.553 0 00-.436-.051c-.18 0-.329.02-.448.06a.73.73 0 00-.283.157.495.495 0 00-.138.227.646.646 0 00-.016.266h.537a.385.385 0 01-.004-.122.222.222 0 01.042-.105.235.235 0 01.094-.073.369.369 0 01.152-.027c.1 0 .174.024.221.073.048.048.071.118.071.207v.142a4.63 4.63 0 00-.406.036 1.401 1.401 0 00-.39.106.745.745 0 00-.293.227.639.639 0 00-.114.4.568.568 0 00.155.388.6.6 0 00.445.177zM5.767 2.803c-.103 0-.187-.052-.253-.154-.066-.103-.098-.271-.098-.506 0-.236.032-.406.098-.509.066-.102.15-.154.253-.154.1 0 .183.052.249.154.065.103.098.273.098.51 0 .234-.033.402-.098.505-.066.102-.15.154-.25.154zm.24-1.737a.543.543 0 00-.47.237 2.11 2.11 0 00-.098.15l-.059-.028a1.05 1.05 0 00.047-.276v-.024H4.78v2.728h.647V3.26a.96.96 0 00-.021-.204 1.63 1.63 0 00-.054-.191l.064-.024a.682.682 0 00.191.227c.049.038.106.07.172.097.065.026.14.04.225.04.11 0 .214-.022.31-.066a.68.68 0 00.25-.197.98.98 0 00.168-.332 1.6 1.6 0 00.061-.468c0-.347-.07-.613-.21-.799a.681.681 0 00-.575-.278zM7.42 3.15h.648V1.638h.49v-.513H6.93v.513h.49zM9.58 2.783a.293.293 0 01-.207-.075.252.252 0 01-.081-.193.27.27 0 01.128-.239.586.586 0 01.185-.073c.078-.019.176-.03.295-.036v.146c0 .06-.006.12-.016.176a.443.443 0 01-.055.15.32.32 0 01-.101.104.267.267 0 01-.148.04zm-.284.422a.69.69 0 00.412-.114.544.544 0 00.13-.12.904.904 0 00.093-.149l.051.028-.043.148a.5.5 0 00-.02.128v.024h.628V1.776a1.04 1.04 0 00-.038-.288.506.506 0 00-.134-.225.637.637 0 00-.268-.146 1.553 1.553 0 00-.436-.051c-.18 0-.329.02-.448.06a.73.73 0 00-.283.157.495.495 0 00-.138.227.646.646 0 00-.016.266h.537a.385.385 0 01-.004-.122.222.222 0 01.042-.105.235.235 0 01.095-.073.369.369 0 01.151-.027c.1 0 .174.024.222.073.047.048.07.118.07.207v.142a4.63 4.63 0 00-.406.036 1.401 1.401 0 00-.39.106.745.745 0 00-.293.227.639.639 0 00-.114.4.568.568 0 00.156.388.6.6 0 00.444.177zM13.436 2.353h0-.544a.61.61 0 01-.002.227.268.268 0 01-.07.13.242.242 0 01-.108.061.48.48 0 01-.286-.012.238.238 0 01-.117-.1.585.585 0 01-.069-.2 1.811 1.811 0 01-.023-.323c0-.127.007-.231.021-.314a.611.611 0 01.065-.2.237.237 0 01.115-.104.494.494 0 01.3-.012.224.224 0 01.106.065c.03.032.05.074.064.128a.504.504 0 01-.004.208h.544c.032-.264-.025-.47-.171-.618-.146-.149-.37-.223-.673-.223-.16 0-.306.022-.437.065a.857.857 0 00-.331.197.87.87 0 00-.21.334 1.39 1.39 0 00-.072.474c0 .184.024.343.073.477a.87.87 0 00.209.334c.09.088.201.153.331.195.13.042.276.063.437.063.163 0 .302-.021.416-.065a.705.705 0 00.276-.18.602.602 0 00.142-.27.983.983 0 00.018-.337zM14.936 1.855h-.055v-.051c0-.105.008-.2.024-.282a.633.633 0 01.082-.22.508.508 0 01.162-.16.888.888 0 01.26-.104c.072-.018.139-.033.202-.045L15.8.957c.061-.012.123-.025.185-.041s.124-.036.188-.06l-.036-.6a3.94 3.94 0 01-.156.064 1.758 1.758 0 01-.16.051 3.948 3.948 0 01-.195.048l-.266.059c-.193.042-.35.106-.472.193a.997.997 0 00-.29.314c-.071.122-.12.261-.146.416a2.975 2.975 0 00.015 1.044c.037.162.096.3.176.41.08.113.185.199.314.26.129.06.284.09.466.09.158 0 .297-.027.418-.08a.876.876 0 00.49-.543c.042-.124.063-.256.063-.395 0-.132-.017-.253-.052-.365a.874.874 0 00-.146-.288.674.674 0 00-.552-.259.882.882 0 00-.286.042.601.601 0 00-.206.116.594.594 0 00-.138.182.876.876 0 00-.077.24zm.462.833c-.105 0-.183-.033-.233-.099-.05-.065-.075-.176-.075-.331 0-.158.026-.274.08-.347a.264.264 0 01.228-.11c.105 0 .184.033.235.102.051.068.077.18.077.335 0 .158-.026.273-.08.344-.052.07-.13.106-.232.106zM18.572 2.475h-.561c.01.124-.014.21-.075.26a.379.379 0 01-.249.076.317.317 0 01-.171-.044.34.34 0 01-.113-.116.541.541 0 01-.063-.17 1.036 1.036 0 01-.02-.207h1.255a1.25 1.25 0 00.016-.162 3.78 3.78 0 00.004-.15 1.25 1.25 0 00-.045-.34.729.729 0 00-.154-.286.75.75 0 00-.286-.197 1.156 1.156 0 00-.438-.073c-.182 0-.337.029-.466.087a.856.856 0 00-.318.239.971.971 0 00-.182.35 1.53 1.53 0 00-.057.425c0 .153.02.292.06.419a.82.82 0 00.495.543c.127.05.28.076.456.076.15 0 .285-.016.404-.05.12-.032.22-.08.298-.143a.566.566 0 00.21-.537zm-.885-1.026c.119 0 .2.037.245.112A.673.673 0 0118 1.9v.02h-.679a.597.597 0 01.095-.344c.06-.084.151-.126.272-.126zM20.754 2.353h0-.544a.61.61 0 01-.002.227.268.268 0 01-.07.13.242.242 0 01-.108.061.48.48 0 01-.286-.012.238.238 0 01-.117-.1.585.585 0 01-.069-.2 1.811 1.811 0 01-.023-.323c0-.127.007-.231.021-.314a.611.611 0 01.066-.2.237.237 0 01.114-.104.494.494 0 01.3-.012.224.224 0 01.107.065c.028.032.05.074.063.128a.504.504 0 01-.004.208h.544c.032-.264-.025-.47-.171-.618-.146-.149-.37-.223-.673-.223-.16 0-.306.022-.436.065a.857.857 0 00-.332.197.87.87 0 00-.21.334 1.39 1.39 0 00-.072.474c0 .184.024.343.073.477a.87.87 0 00.209.334c.09.088.201.153.332.195.13.042.275.063.436.063.163 0 .302-.021.416-.065a.705.705 0 00.276-.18.602.602 0 00.143-.27.983.983 0 00.017-.337zM21.078 3.15h.647V1.638h.545V3.15h.647V1.125h-1.839zM23.154 2.649h0v.497c.216.029.388.03.517.002a.449.449 0 00.296-.201c.069-.107.114-.259.135-.456a7.5 7.5 0 00.031-.766V1.58h.351V3.15h.648V1.125h-1.619v.497c0 .245-.004.438-.013.579-.01.14-.027.246-.052.317-.025.071-.06.114-.108.129a.41.41 0 01-.186.002zM26.312 2.783a.293.293 0 01-.207-.075.252.252 0 01-.081-.193.27.27 0 01.128-.239.586.586 0 01.186-.073c.077-.019.175-.03.294-.036v.146c0 .06-.006.12-.016.176a.443.443 0 01-.055.15.32.32 0 01-.101.104.267.267 0 01-.148.04zm-.284.422a.69.69 0 00.412-.114.544.544 0 00.13-.12.904.904 0 00.093-.149l.052.028c-.016.05-.03.1-.044.148a.5.5 0 00-.02.128v.024h.628V1.776a1.04 1.04 0 00-.037-.288.506.506 0 00-.135-.225.637.637 0 00-.268-.146 1.553 1.553 0 00-.436-.051c-.18 0-.329.02-.448.06a.73.73 0 00-.282.157.495.495 0 00-.139.227.646.646 0 00-.015.266h.536a.385.385 0 01-.004-.122.222.222 0 01.042-.105.235.235 0 01.095-.073.369.369 0 01.152-.027c.1 0 .173.024.22.073.048.048.072.118.072.207v.142a4.63 4.63 0 00-.407.036 1.401 1.401 0 00-.39.106.745.745 0 00-.293.227.639.639 0 00-.114.4.568.568 0 00.156.388.6.6 0 00.444.177zM27.986 3.15h.647V1.638h.49v-.513h-1.627v.513h.49zM29.379 3.15h.647v-.758h.58v.758h.648V1.125h-.647v.754h-.58v-.754h-.648zM33.602 3.15h.648V1.125h-.648zm-1.306-1.496v-.529h-.647V3.15h.872c.174 0 .318-.024.432-.073a.789.789 0 00.274-.184.656.656 0 00.147-.242.804.804 0 00.043-.251c0-.103-.014-.2-.041-.29a.544.544 0 00-.147-.237.74.74 0 00-.276-.16 1.343 1.343 0 00-.432-.059zm.182 1.007h-.182v-.518h.182c.084 0 .15.02.2.062.05.04.076.107.076.199 0 .092-.025.158-.075.197a.316.316 0 01-.201.06zM35.418 2.27l.162.655h.66l.161-.655a4.547 4.547 0 00.118-.691h.052c-.005.045-.01.103-.012.176a6.831 6.831 0 00.002.546c.004.108.011.22.022.336l.043.513h.608l-.146-2.025H36.2l-.174.79a2.204 2.204 0 00-.034.171 32.958 32.958 0 00-.045.316 1.019 1.019 0 00-.008.109h-.059c0-.027-.003-.063-.008-.109a4.23 4.23 0 00-.047-.316c-.01-.059-.021-.116-.032-.171l-.174-.79h-.888l-.146 2.025h.608l.044-.513A6.208 6.208 0 0035.264 2c0-.092-.001-.174-.004-.246a2.287 2.287 0 00-.012-.176h.052a4.3 4.3 0 00.118.69z" stroke-width=".00395"/></g><g fill="#fff" stroke="#000"><path d="M1.157 7.16c.334 0 .589-.092.765-.275.177-.183.265-.448.265-.795 0-.348-.088-.614-.265-.798-.176-.184-.431-.276-.765-.276-.34 0-.598.092-.774.276-.176.184-.265.45-.265.798 0 .347.089.612.265.795.176.183.434.274.774.274zm0-.42a.368.368 0 01-.158-.03.255.255 0 01-.11-.105.59.59 0 01-.066-.2 1.91 1.91 0 01-.022-.315c0-.124.008-.227.022-.31a.635.635 0 01.065-.202.263.263 0 01.11-.11.349.349 0 01.159-.034c.057 0 .108.011.151.034.044.022.08.059.109.11.029.052.05.119.065.202.015.083.022.186.022.31 0 .126-.007.231-.022.315a.59.59 0 01-.065.2.258.258 0 01-.109.104.345.345 0 01-.151.032zM2.968 5.805h-.055v-.051c0-.105.008-.2.024-.282a.633.633 0 01.083-.22.508.508 0 01.161-.16.888.888 0 01.261-.104c.071-.018.138-.033.201-.045l.188-.036c.062-.012.123-.025.185-.041s.125-.036.188-.06l-.036-.6a3.94 3.94 0 01-.156.064 1.758 1.758 0 01-.16.051 3.948 3.948 0 01-.195.048l-.266.059c-.192.042-.35.106-.472.193a.997.997 0 00-.29.314c-.071.122-.12.261-.146.416a2.975 2.975 0 00.016 1.044c.036.162.095.3.175.41.08.113.185.199.314.26.129.06.284.09.466.09.158 0 .297-.027.418-.08a.876.876 0 00.49-.543c.042-.124.063-.256.063-.395 0-.132-.017-.253-.052-.365a.874.874 0 00-.146-.288.674.674 0 00-.552-.259.882.882 0 00-.286.042.601.601 0 00-.206.116.594.594 0 00-.138.182.876.876 0 00-.077.24zm.462.833c-.105 0-.183-.033-.233-.099-.05-.065-.075-.176-.075-.331 0-.158.027-.274.08-.347a.264.264 0 01.228-.11c.105 0 .184.033.235.102.051.068.077.18.077.335 0 .158-.026.273-.079.344-.053.07-.13.106-.233.106zM6.584 6.303h0-.545a.61.61 0 01-.002.227.268.268 0 01-.069.13.242.242 0 01-.108.061.48.48 0 01-.287-.012.238.238 0 01-.116-.1.585.585 0 01-.07-.2 1.811 1.811 0 01-.023-.323c0-.127.007-.231.022-.314a.611.611 0 01.065-.2.237.237 0 01.115-.104.494.494 0 01.3-.012.224.224 0 01.106.065c.029.032.05.074.063.128a.504.504 0 01-.004.208h.545c.032-.264-.026-.47-.172-.618-.146-.149-.37-.223-.673-.223-.16 0-.306.022-.436.065a.857.857 0 00-.331.197.87.87 0 00-.21.334 1.39 1.39 0 00-.073.474c0 .184.025.343.073.477a.87.87 0 00.21.334c.09.088.2.153.331.195.13.042.276.063.436.063.163 0 .302-.021.417-.065a.705.705 0 00.276-.18.602.602 0 00.142-.27.983.983 0 00.018-.337zM6.75 6.599h0v.497c.215.029.388.03.517.002a.449.449 0 00.296-.201c.068-.107.113-.259.134-.456a7.5 7.5 0 00.032-.766V5.53h.35V7.1h.648V5.075H7.11v.497c0 .245-.005.438-.014.579-.01.14-.026.246-.051.317-.025.071-.061.114-.109.129a.41.41 0 01-.185.002zM9.994 6.642h0-.059c0-.034-.005-.09-.014-.166a4.498 4.498 0 00-.043-.274 10.313 10.313 0 00-.176-.764L9.6 5.075h-.656l.683 2.282-.146.446h.68l.816-2.728h-.64l-.102.375a7.838 7.838 0 00-.176.75 5.86 5.86 0 00-.065.442zM12.915 5.075h-.647v.754h-.107c-.042 0-.074-.01-.096-.03a.264.264 0 01-.062-.112 6.755 6.755 0 00-.11-.296 6.24 6.24 0 00-.079-.182.74.74 0 00-.075-.134h-.699a.67.67 0 01.115.154c.031.058.059.118.083.182l.07.193c.024.066.05.128.08.186.04.078.085.137.136.175.051.038.119.067.203.085v.036a.499.499 0 00-.227.09.463.463 0 00-.128.198 9.883 9.883 0 01-.152.377c-.057.133-.124.249-.203.349h.69a.6.6 0 00.07-.122 2.28 2.28 0 00.07-.178 4.024 4.024 0 00.097-.312.227.227 0 01.053-.106c.025-.027.064-.04.117-.04h.154V7.1h.647v-.758h.134c.053 0 .092.013.117.04a.227.227 0 01.053.106 3.035 3.035 0 00.097.312c.022.063.046.122.07.178a.6.6 0 00.07.122h.71a1.522 1.522 0 01-.203-.35 9.883 9.883 0 01-.152-.376.463.463 0 00-.128-.198.499.499 0 00-.227-.09V6.05a.527.527 0 00.203-.085.483.483 0 00.136-.175c.03-.058.056-.12.08-.186l.07-.193a1.42 1.42 0 01.083-.182.67.67 0 01.115-.154h-.687a.74.74 0 00-.075.134 6.24 6.24 0 00-.148.36c-.02.055-.034.094-.041.118a.264.264 0 01-.062.112c-.022.02-.054.03-.096.03h-.119zM14.384 7.1h.825l.28-.62a6.806 6.806 0 00.203-.527 6.326 6.326 0 00.128-.416l.056.008a7.22 7.22 0 00-.09.943l-.001.612h.623V5.075h-.82l-.28.62c-.038.081-.074.169-.11.262a10.332 10.332 0 00-.177.511l-.05.17-.05-.008a3.996 3.996 0 00.055-.428c.008-.09.015-.182.021-.274.007-.092.01-.175.01-.249v-.604h-.623zM16.803 5.075V7.1h.975c.113 0 .221-.009.324-.026a.836.836 0 00.268-.088.5.5 0 00.184-.172.51.51 0 00.069-.278c0-.05-.009-.101-.026-.152a.384.384 0 00-.087-.143.497.497 0 00-.163-.11.719.719 0 00-.253-.053V6.03a.723.723 0 00.21-.07.439.439 0 00.245-.383c-.001-.185-.068-.314-.202-.39-.135-.074-.316-.112-.545-.112zm.944 1.618h-.316v-.398h.323c.061 0 .117.014.168.043.052.03.077.08.077.154 0 .071-.023.122-.069.154a.32.32 0 01-.183.047zm-.075-.805h-.241v-.41h.272c.06 0 .113.014.156.043.043.03.065.08.065.15 0 .074-.025.128-.075.164a.299.299 0 01-.177.053zM19.704 6.733a.293.293 0 01-.207-.075.252.252 0 01-.08-.193.27.27 0 01.128-.239.586.586 0 01.185-.073c.078-.019.176-.03.294-.036v.146c0 .06-.005.12-.016.176a.443.443 0 01-.055.15.32.32 0 01-.1.104.267.267 0 01-.149.04zm-.284.422a.69.69 0 00.412-.114.544.544 0 00.13-.12.904.904 0 00.094-.149l.051.028c-.016.05-.03.1-.043.148a.5.5 0 00-.02.128V7.1h.627V5.726a1.04 1.04 0 00-.037-.288.506.506 0 00-.134-.225.637.637 0 00-.269-.146 1.553 1.553 0 00-.436-.051c-.179 0-.328.02-.448.06a.73.73 0 00-.282.157.495.495 0 00-.138.227.646.646 0 00-.016.266h.537a.385.385 0 01-.004-.122.222.222 0 01.041-.105.235.235 0 01.095-.073.369.369 0 01.152-.027c.1 0 .174.024.221.073.047.048.071.118.071.207v.142a4.63 4.63 0 00-.406.036 1.401 1.401 0 00-.391.106.745.745 0 00-.292.227.639.639 0 00-.115.4.568.568 0 00.156.388.6.6 0 00.444.177zM21.027 7.1h.647v-.758h.58V7.1h.648V5.075h-.648v.754h-.58v-.754h-.647zM23.296 7.1h.825l.28-.62a6.806 6.806 0 00.204-.527 6.326 6.326 0 00.128-.416l.055.008a7.22 7.22 0 00-.09.943V7.1h.623V5.075h-.82l-.281.62c-.037.081-.073.169-.109.262a10.332 10.332 0 00-.177.511c-.023.074-.039.13-.05.17l-.05-.008a3.996 3.996 0 00.054-.428c.008-.09.016-.182.022-.274.007-.092.01-.175.01-.249v-.604h-.624zM27.56 6.425h-.561c.01.124-.015.21-.075.26a.379.379 0 01-.249.076.317.317 0 01-.172-.044.34.34 0 01-.112-.116.541.541 0 01-.063-.17 1.036 1.036 0 01-.02-.207h1.255a1.25 1.25 0 00.016-.162 3.78 3.78 0 00.004-.15 1.25 1.25 0 00-.045-.34.729.729 0 00-.154-.286.75.75 0 00-.287-.197 1.156 1.156 0 00-.438-.073c-.181 0-.336.029-.465.087a.856.856 0 00-.318.239.971.971 0 00-.182.35 1.53 1.53 0 00-.057.425c0 .153.02.292.06.419a.82.82 0 00.495.543c.127.05.28.076.456.076.15 0 .284-.016.404-.05.12-.032.22-.08.298-.143a.566.566 0 00.21-.537zm-.885-1.026c.119 0 .2.037.245.112a.673.673 0 01.067.338v.02h-.679a.597.597 0 01.095-.344c.06-.084.151-.126.272-.126zM28.633 6.22l.162.655h.659l.162-.655a4.547 4.547 0 00.118-.691h.052c-.006.045-.01.103-.012.176a6.831 6.831 0 00.002.546c.004.108.01.22.021.336l.044.513h.608l-.146-2.025h-.889l-.173.79a2.204 2.204 0 00-.034.171 32.958 32.958 0 00-.045.316 1.019 1.019 0 00-.008.109h-.06c0-.027-.002-.063-.007-.109a4.23 4.23 0 00-.047-.316l-.032-.171-.174-.79h-.888L27.8 7.1h.608l.043-.513a6.208 6.208 0 00.028-.636c0-.092-.001-.174-.004-.246a2.287 2.287 0 00-.012-.176h.052a4.3 4.3 0 00.118.69z" stroke-width=".00395"/></g><g fill="#fff" stroke="#000"><path d="M31.495 7.1h.647v-.758h.58V7.1h.648V5.075h-.648v.754h-.58v-.754h-.647zM34.55 6.733a.293.293 0 01-.207-.075.252.252 0 01-.081-.193.27.27 0 01.128-.239.586.586 0 01.185-.073c.078-.019.176-.03.295-.036v.146c0 .06-.006.12-.016.176a.443.443 0 01-.056.15.32.32 0 01-.1.104.267.267 0 01-.148.04zm-.284.422a.69.69 0 00.412-.114.544.544 0 00.13-.12.904.904 0 00.093-.149l.051.028-.043.148a.5.5 0 00-.02.128V7.1h.628V5.726a1.04 1.04 0 00-.038-.288.506.506 0 00-.134-.225.637.637 0 00-.268-.146 1.553 1.553 0 00-.436-.051c-.18 0-.329.02-.448.06a.73.73 0 00-.283.157.495.495 0 00-.138.227.646.646 0 00-.016.266h.537a.385.385 0 01-.004-.122.222.222 0 01.042-.105.235.235 0 01.094-.073.369.369 0 01.152-.027c.1 0 .174.024.221.073.048.048.072.118.072.207v.142a4.63 4.63 0 00-.407.036 1.401 1.401 0 00-.39.106.745.745 0 00-.293.227.639.639 0 00-.114.4.568.568 0 00.156.388.6.6 0 00.444.177zM35.872 5.075V7.1h.975c.113 0 .221-.009.324-.026a.836.836 0 00.268-.088.5.5 0 00.184-.172.51.51 0 00.069-.278c0-.05-.009-.101-.026-.152a.384.384 0 00-.087-.143.497.497 0 00-.164-.11.719.719 0 00-.252-.053V6.03a.723.723 0 00.209-.07.439.439 0 00.245-.383c0-.185-.067-.314-.202-.39-.134-.074-.315-.112-.544-.112zm.943 1.618H36.5v-.398h.323c.06 0 .117.014.168.043.051.03.077.08.077.154 0 .071-.023.122-.069.154a.32.32 0 01-.184.047zm-.075-.805h-.24v-.41h.272c.06 0 .113.014.156.043.043.03.065.08.065.15 0 .074-.025.128-.075.164a.299.299 0 01-.178.053zM39.811 6.303h0-.544a.61.61 0 01-.002.227.268.268 0 01-.07.13.242.242 0 01-.108.061.48.48 0 01-.286-.012.238.238 0 01-.117-.1.585.585 0 01-.069-.2 1.811 1.811 0 01-.023-.323c0-.127.007-.231.021-.314a.611.611 0 01.066-.2.237.237 0 01.114-.104.494.494 0 01.3-.012.224.224 0 01.107.065c.029.032.05.074.063.128a.504.504 0 01-.004.208h.545c.031-.264-.026-.47-.172-.618-.146-.149-.37-.223-.673-.223-.16 0-.306.022-.436.065a.857.857 0 00-.332.197.87.87 0 00-.21.334 1.39 1.39 0 00-.072.474c0 .184.024.343.073.477a.87.87 0 00.21.334c.09.088.2.153.33.195.13.042.276.063.437.063.163 0 .302-.021.416-.065a.705.705 0 00.277-.18.602.602 0 00.142-.27.983.983 0 00.017-.337zM41.998 6.425h-.56c.01.124-.015.21-.075.26a.379.379 0 01-.249.076.317.317 0 01-.172-.044.34.34 0 01-.112-.116.541.541 0 01-.063-.17 1.036 1.036 0 01-.02-.207h1.255a1.25 1.25 0 00.016-.162 3.78 3.78 0 00.004-.15 1.25 1.25 0 00-.046-.34.729.729 0 00-.154-.286.75.75 0 00-.286-.197 1.156 1.156 0 00-.438-.073c-.181 0-.337.029-.466.087a.856.856 0 00-.317.239.971.971 0 00-.182.35 1.53 1.53 0 00-.057.425c0 .153.02.292.06.419a.82.82 0 00.495.543c.127.05.279.076.455.076.15 0 .285-.016.405-.05.12-.032.219-.08.298-.143a.566.566 0 00.21-.537zm-.884-1.026c.118 0 .2.037.245.112a.673.673 0 01.067.338v.02h-.68a.597.597 0 01.096-.344c.06-.084.15-.126.272-.126zM42.338 7.1h.647V5.588h.695v-.513h-1.342zM45.886 6.587h-.213V5.075h-1.618v.521c0 .105-.004.216-.01.332a1.669 1.669 0 01-.048.32.678.678 0 01-.11.242.232.232 0 01-.196.097h-.031v1.002h.596V7.1h1.034v.49h.596zm-.86 0h-.703v-.04a.496.496 0 00.166-.118.477.477 0 00.097-.184 1.23 1.23 0 00.043-.272 6.37 6.37 0 00.01-.385h.387zM46.928 6.733a.293.293 0 01-.207-.075.252.252 0 01-.081-.193.27.27 0 01.128-.239.586.586 0 01.186-.073c.077-.019.175-.03.294-.036v.146c0 .06-.005.12-.016.176a.443.443 0 01-.055.15.32.32 0 01-.1.104.267.267 0 01-.149.04zm-.284.422a.69.69 0 00.412-.114.544.544 0 00.13-.12.904.904 0 00.093-.149l.052.028c-.016.05-.03.1-.044.148a.5.5 0 00-.02.128V7.1h.628V5.726a1.04 1.04 0 00-.037-.288.506.506 0 00-.134-.225.637.637 0 00-.269-.146 1.553 1.553 0 00-.436-.051c-.179 0-.328.02-.448.06a.73.73 0 00-.282.157.495.495 0 00-.138.227.646.646 0 00-.016.266h.537a.385.385 0 01-.004-.122.222.222 0 01.041-.105.235.235 0 01.095-.073.369.369 0 01.152-.027c.1 0 .173.024.22.073.048.048.072.118.072.207v.142a4.63 4.63 0 00-.407.036 1.401 1.401 0 00-.39.106.745.745 0 00-.293.227.639.639 0 00-.114.4.568.568 0 00.156.388.6.6 0 00.444.177z" stroke-width=".00395"/></g></svg>