<svg width="541.2" height="36" viewBox="0 0 541.2 36" xmlns="http://www.w3.org/2000/svg"><g fill="#fff" stroke="#000"><path d="M5.54 11.729l.211 1.037q-.55.291-1.571.291-1.669 0-2.665-1.36-.997-1.361-.997-4.05 0-1.54.357-2.698.356-1.158.94-1.79.583-.632 1.23-.923.649-.292 1.345-.292.94 0 1.345.275l-.276 1.053q-.518-.226-1.085-.226-1.02 0-1.782 1.085-.761 1.085-.761 3.386 0 2.333.72 3.386.721 1.053 1.855 1.053.616 0 1.134-.227zM6.901 16.07V7.565q0-.243-.065-2.446h1.118l.065.988h.032Q8.618 4.99 9.704 4.99q1.053 0 1.66 1.06.608 1.062.608 2.973 0 2.042-.705 3.054-.705 1.013-1.709 1.013-.956 0-1.377-.891h-.032v3.871zM8.15 8.084v2.009q0 .388.064.648.292 1.312 1.134 1.312.73 0 1.053-.843.324-.842.324-2.154 0-1.329-.34-2.163-.34-.834-1.037-.834-.42 0-.761.437-.34.438-.389.988-.048.195-.048.6zM15.6 13.09h-.016q-1.117 0-1.83-1.03-.713-1.028-.713-3.004 0-2.025.761-3.046.762-1.02 1.863-1.02 1.118 0 1.823 1.028.705 1.029.705 3.005 0 2.09-.77 3.078-.77.989-1.822.989zm.033-.989h.016q.502 0 .81-.534.308-.535.397-1.167.09-.631.09-1.36 0-.73-.09-1.353-.089-.624-.405-1.166-.316-.543-.834-.543-.389 0-.673.3-.283.3-.413.793-.13.494-.186.972-.057.478-.057.997 0 .55.057 1.036t.194.972q.138.486.414.77.275.283.68.283zM19.586 5.12H20.8V8.52h.178l2.057-3.402h1.377l-2.446 3.532q1.377.227 1.912 2.22.453 1.62.648 2.089h-1.28q-.162-.389-.567-1.83-.227-.86-.624-1.28-.397-.422-1.126-.422h-.13v3.532h-1.214zM25.531 5.12h1.134v2.688q0 2.317-.113 3.759h.032q.26-.745 1.167-3.062l1.312-3.386h1.312v7.841h-1.15v-2.592q0-1.88.13-3.823h-.05q-.323 1.182-.939 2.721-.972 2.43-1.555 3.694h-1.28zM38.783 7.776v3.402q0 1.28.08 1.782h-1.117l-.081-.826h-.049q-.534.956-1.555.956-.81 0-1.336-.616-.527-.616-.527-1.62 0-1.393.948-2.114.948-.721 2.39-.737V7.76q0-.859-.276-1.32-.275-.462-.972-.462-.713 0-1.296.405l-.275-.875q.729-.518 1.83-.518 2.236 0 2.236 2.786zm-1.215 2.705V8.894q-2.155 0-2.155 1.83 0 .713.284 1.053.283.34.672.34.421 0 .729-.307.308-.308.421-.875.049-.21.049-.454zM40.549 5.12h1.215V8.52h.178l2.057-3.402h1.377L42.93 8.651q1.377.227 1.912 2.22.453 1.62.648 2.089h-1.28q-.162-.389-.567-1.83-.227-.86-.624-1.28-.397-.422-1.126-.422h-.13v3.532H40.55zM46.494 5.12h1.247v6.803h2.236V5.12h1.247v6.869l.665.016-.065 3.046h-.956l-.081-2.09h-4.293zM53.152 5.12h1.134v2.688q0 2.317-.113 3.759h.032q.26-.745 1.167-3.062l1.312-3.386h1.312v7.841h-1.15v-2.592q0-1.88.13-3.823h-.05q-.323 1.182-.939 2.721-.972 2.43-1.555 3.694h-1.28zM59.73 5.12h1.133v2.688q0 2.317-.113 3.759h.032q.26-.745 1.167-3.062l1.312-3.386h1.312v7.841h-1.15v-2.592q0-1.88.13-3.823h-.049q-.324 1.182-.94 2.721-.972 2.43-1.555 3.694h-1.28zM72.495 11.81l.178.956q-.502.291-1.296.291-1.312 0-2.09-1.028-.777-1.03-.777-2.94 0-1.75.834-2.917.834-1.166 2.26-1.166.697 0 1.102.259l-.243 1.004q-.422-.21-.891-.21-.891 0-1.353.883-.462.883-.462 2.146 0 1.377.494 2.155.494.777 1.353.777.486 0 .891-.21zM78.489 13.09h-.016q-1.231 0-1.928-1.41-.697-1.41-.697-3.969 0-2.624.73-4.017.728-1.394 2.04-1.394 1.264 0 1.928 1.418.665 1.417.665 3.96 0 2.739-.754 4.075-.753 1.337-1.968 1.337zm.049-1.07h.016q1.41 0 1.41-4.325 0-1.96-.35-3.143-.347-1.182-1.06-1.182-.73 0-1.094 1.158-.364 1.158-.364 3.167-.016 1.993.34 3.159.356 1.166 1.102 1.166zM82.102 12.604l.275-.989q.729.438 1.523.438.826 0 1.32-.567.494-.567.494-1.523 0-1.02-.583-1.604-.583-.583-1.539-.583H83.3v-.94h.243q.665 0 1.28-.494.616-.494.616-1.385 0-.777-.38-1.199-.382-.42-1.013-.42-.616 0-1.313.501l-.259-.94q.73-.599 1.88-.599 1.085 0 1.708.68.624.681.624 1.734 0 .81-.405 1.474-.405.665-1.166 1.005v.032q.794.21 1.32.907.527.697.527 1.863 0 1.329-.81 2.212-.81.883-2.204.883-1.15 0-1.846-.486zM95.434 7.776v3.402q0 1.28.081 1.782h-1.118l-.08-.826h-.05q-.534.956-1.554.956-.81 0-1.337-.616-.526-.616-.526-1.62 0-1.393.947-2.114.948-.721 2.39-.737V7.76q0-.859-.276-1.32-.275-.462-.972-.462-.712 0-1.296.405l-.275-.875q.729-.518 1.83-.518 2.236 0 2.236 2.786zm-1.215 2.705V8.894q-2.154 0-2.154 1.83 0 .713.283 1.053.284.34.672.34.422 0 .73-.307.307-.308.42-.875.05-.21.05-.454zM97.2 5.12h4.747v7.84h-1.248V6.156h-2.252v6.804H97.2zM103.664 16.07V7.565q0-.243-.065-2.446h1.118l.065.988h.032q.567-1.117 1.652-1.117 1.053 0 1.66 1.06.608 1.062.608 2.973 0 2.042-.704 3.054-.705 1.013-1.71 1.013-.955 0-1.376-.891h-.033v3.871zm1.247-7.986v2.009q0 .388.065.648.292 1.312 1.134 1.312.729 0 1.053-.843.324-.842.324-2.154 0-1.329-.34-2.163-.34-.834-1.037-.834-.421 0-.761.437-.34.438-.39.988-.048.195-.048.6zM114.647 9.153h-3.628q.016 2.916 1.846 2.916.746 0 1.296-.292l.211.908q-.664.372-1.733.372-1.377 0-2.106-1.045-.73-1.045-.73-2.891 0-1.896.73-3.014.729-1.117 1.911-1.117 1.118 0 1.677.996.559.996.559 2.454 0 .324-.033.713zm-3.612-.923h2.446q.016-1.102-.332-1.685-.348-.583-.834-.583-.567 0-.9.688-.332.689-.38 1.58zM116.413 5.12h4.147v7.84h-1.247V6.14h-1.717v2.495q0 1.879-.26 2.867-.259.988-1.052 1.377-.39.194-.843.194l-.21-.988q.388-.065.648-.356.534-.535.534-3.013zM126.7 5.168v7.792h-1.215V9.607h-.372q-.746 0-1.15.372-.179.162-.325.454-.145.291-.21.534-.065.243-.17.713-.106.47-.17.697-.114.372-.211.583h-1.312q.243-.405.356-.81.049-.162.154-.6.105-.437.178-.696.073-.26.219-.591.146-.332.34-.543.373-.405.972-.518v-.033q-.745-.146-1.24-.64-.493-.494-.493-1.288 0-1.02.794-1.636.729-.583 2.17-.583 1.037 0 1.685.146zm-1.215 3.596V5.945q-.21-.064-.534-.064-.713 0-1.183.348-.47.348-.47 1.045 0 .696.51 1.093t1.191.397zM135.675 12.96h-5.054v-.81l.874-1.199q.697-.972.997-1.41.3-.437.81-1.295.51-.859.72-1.58.211-.72.211-1.417 0-.891-.38-1.385-.381-.494-1.11-.494-.68 0-1.523.583l-.308-.94q.859-.713 2.058-.713 1.247 0 1.879.81.632.81.632 2.074 0 1.328-.689 2.673-.688 1.345-1.92 2.997l-.696.972v.032h3.499zM139.417 13.09h-.016q-1.231 0-1.928-1.41-.696-1.41-.696-3.969 0-2.624.729-4.017.729-1.394 2.04-1.394 1.264 0 1.929 1.418.664 1.417.664 3.96 0 2.739-.753 4.075-.754 1.337-1.969 1.337zm.049-1.07h.016q1.41 0 1.41-4.325 0-1.96-.349-3.143-.348-1.182-1.061-1.182-.729 0-1.093 1.158-.365 1.158-.365 3.167-.016 1.993.34 3.159.357 1.166 1.102 1.166zM148.149 12.96h-5.054v-.81l.874-1.199q.697-.972.997-1.41.3-.437.81-1.295.51-.859.72-1.58.211-.72.211-1.417 0-.891-.38-1.385-.381-.494-1.11-.494-.68 0-1.523.583l-.308-.94q.859-.713 2.058-.713 1.247 0 1.879.81.632.81.632 2.074 0 1.328-.689 2.673-.688 1.345-1.92 2.997l-.696.972v.032h3.499zM149.267 12.604l.275-.989q.73.438 1.523.438.826 0 1.32-.567.494-.567.494-1.523 0-1.02-.583-1.604-.583-.583-1.539-.583h-.291v-.94h.243q.664 0 1.28-.494.615-.494.615-1.385 0-.777-.38-1.199-.381-.42-1.013-.42-.616 0-1.312.501l-.26-.94q.73-.599 1.88-.599 1.085 0 1.709.68.623.681.623 1.734 0 .81-.405 1.474-.405.665-1.166 1.005v.032q.794.21 1.32.907.527.697.527 1.863 0 1.329-.81 2.212-.81.883-2.203.883-1.15 0-1.847-.486zM155.925 5.12h3.661v1.052h-2.414v6.788h-1.247zM160.38 13.09h-.016q-.34 0-.575-.26-.235-.259-.235-.68 0-.405.243-.672.243-.268.583-.268.373 0 .6.26.226.259.226.68 0 .437-.218.689-.22.25-.608.25zM165.321 5.12h4.747v7.84h-1.248V6.156h-2.252v6.804h-1.247zM174.02 13.09h-.016q-1.118 0-1.83-1.03-.713-1.028-.713-3.004 0-2.025.761-3.046.762-1.02 1.863-1.02 1.118 0 1.823 1.028.704 1.029.704 3.005 0 2.09-.77 3.078-.769.989-1.822.989zm.033-.989h.016q.502 0 .81-.534.308-.535.397-1.167.089-.631.089-1.36 0-.73-.09-1.353-.088-.624-.404-1.166-.316-.543-.834-.543-.39 0-.673.3-.283.3-.413.793-.13.494-.186.972-.057.478-.057.997 0 .55.057 1.036t.194.972q.138.486.413.77.276.283.68.283zM182.72 12.96V3.694h-.033l-1.75 1.004-.242-.972 2.22-1.296h1.02v10.53zM191.079 2.3v1.053q-.308 0-.745.098-2.187.55-2.706 3.807h.049q.68-1.005 1.782-1.005 1.004 0 1.636.875.632.875.632 2.365 0 1.555-.689 2.576-.688 1.02-1.903 1.02-1.345 0-2.057-1.198-.713-1.199-.713-3.094 0-2.884 1.36-4.747.454-.648 1.143-1.077.688-.43 1.417-.575.26-.049.794-.098zm-1.944 9.818h.016q.567 0 .948-.624.38-.624.38-1.904 0-1.166-.38-1.773-.38-.608-1.029-.608-.94 0-1.377 1.134-.08.243-.08.632.015 1.555.428 2.349.414.794 1.094.794zM199.697 7.776v3.402q0 1.28.081 1.782h-1.117l-.081-.826h-.049q-.535.956-1.555.956-.81 0-1.337-.616-.526-.616-.526-1.62 0-1.393.947-2.114.948-.721 2.39-.737V7.76q0-.859-.275-1.32-.276-.462-.972-.462-.713 0-1.296.405l-.276-.875q.73-.518 1.83-.518 2.236 0 2.236 2.786zm-1.215 2.705V8.894q-2.154 0-2.154 1.83 0 .713.283 1.053.284.34.673.34.42 0 .729-.307.307-.308.42-.875.05-.21.05-.454zM201.463 5.12h4.747v7.84h-1.248V6.156h-2.251v6.804h-1.248zM207.927 16.07V7.565q0-.243-.065-2.446h1.118l.065.988h.032q.567-1.117 1.653-1.117 1.053 0 1.66 1.06.608 1.062.608 2.973 0 2.042-.705 3.054-.705 1.013-1.71 1.013-.955 0-1.376-.891h-.033v3.871zm1.247-7.986v2.009q0 .388.065.648.292 1.312 1.134 1.312.73 0 1.053-.843.324-.842.324-2.154 0-1.329-.34-2.163-.34-.834-1.037-.834-.421 0-.761.437-.34.438-.389.988-.049.195-.049.6zM218.91 9.153h-3.628q.016 2.916 1.847 2.916.745 0 1.296-.292l.21.908q-.664.372-1.733.372-1.377 0-2.106-1.045-.73-1.045-.73-2.891 0-1.896.73-3.014.729-1.117 1.911-1.117 1.118 0 1.677.996.559.996.559 2.454 0 .324-.032.713zm-3.612-.923h2.446q.016-1.102-.332-1.685-.348-.583-.834-.583-.567 0-.9.688-.331.689-.38 1.58zM220.676 5.12h4.148v7.84h-1.248V6.14h-1.717v2.495q0 1.879-.26 2.867-.258.988-1.052 1.377-.389.194-.843.194l-.21-.988q.389-.065.648-.356.534-.535.534-3.013zM230.963 5.168v7.792h-1.215V9.607h-.372q-.745 0-1.15.372-.179.162-.324.454-.146.291-.211.534-.065.243-.17.713-.105.47-.17.697-.114.372-.21.583h-1.313q.243-.405.356-.81.049-.162.154-.6.106-.437.178-.696.073-.26.22-.591.145-.332.34-.543.372-.405.971-.518v-.033q-.745-.146-1.239-.64-.494-.494-.494-1.288 0-1.02.794-1.636.729-.583 2.17-.583 1.037 0 1.685.146zm-1.215 3.596V5.945q-.21-.064-.534-.064-.713 0-1.183.348-.47.348-.47 1.045 0 .696.51 1.093.511.397 1.191.397z" stroke-width=".0162"/></g><g fill="#fff" stroke="#000"><path d="M239.938 12.96h-5.054v-.81l.875-1.199q.696-.972.996-1.41.3-.437.81-1.295.51-.859.72-1.58.211-.72.211-1.417 0-.891-.38-1.385-.381-.494-1.11-.494-.68 0-1.523.583l-.308-.94q.859-.713 2.058-.713 1.247 0 1.879.81.632.81.632 2.074 0 1.328-.689 2.673-.688 1.345-1.92 2.997l-.696.972v.032h3.5zM243.68 13.09h-.016q-1.231 0-1.928-1.41-.696-1.41-.696-3.969 0-2.624.729-4.017.729-1.394 2.041-1.394 1.264 0 1.928 1.418.664 1.417.664 3.96 0 2.739-.753 4.075-.754 1.337-1.969 1.337zm.049-1.07h.016q1.41 0 1.41-4.325 0-1.96-.349-3.143-.348-1.182-1.06-1.182-.73 0-1.094 1.158-.365 1.158-.365 3.167-.016 1.993.34 3.159.357 1.166 1.102 1.166zM252.412 12.96h-5.054v-.81l.875-1.199q.696-.972.996-1.41.3-.437.81-1.295.51-.859.72-1.58.211-.72.211-1.417 0-.891-.38-1.385-.381-.494-1.11-.494-.68 0-1.523.583l-.308-.94q.859-.713 2.058-.713 1.247 0 1.879.81.632.81.632 2.074 0 1.328-.689 2.673-.688 1.345-1.92 2.997l-.696.972v.032h3.5zM253.53 12.604l.275-.989q.73.438 1.523.438.826 0 1.32-.567.495-.567.495-1.523 0-1.02-.584-1.604-.583-.583-1.539-.583h-.291v-.94h.243q.664 0 1.28-.494.615-.494.615-1.385 0-.777-.38-1.199-.381-.42-1.013-.42-.616 0-1.312.501l-.26-.94q.73-.599 1.88-.599 1.085 0 1.709.68.624.681.624 1.734 0 .81-.405 1.474-.405.665-1.167 1.005v.032q.794.21 1.32.907.527.697.527 1.863 0 1.329-.81 2.212-.81.883-2.203.883-1.15 0-1.847-.486zM260.188 5.12h3.661v1.052h-2.413v6.788h-1.248zM264.643 13.09h-.016q-.34 0-.575-.26-.235-.259-.235-.68 0-.405.243-.672.243-.268.583-.268.373 0 .6.26.226.259.226.68 0 .437-.218.689-.219.25-.608.25zM267.3 14.888l-.859.113q.648-1.814.94-3.774l1.41-.162q-.292 1.02-.73 2.162-.437 1.142-.761 1.66zM272.727 5.12h1.247v3.32h2.317V5.12h1.247v7.84h-1.247V9.51h-2.317v3.45h-1.247zM283.792 9.153h-3.63q.017 2.916 1.848 2.916.745 0 1.296-.292l.21.908q-.664.372-1.733.372-1.377 0-2.106-1.045-.73-1.045-.73-2.891 0-1.896.73-3.014.729-1.117 1.911-1.117 1.118 0 1.677.996.559.996.559 2.454 0 .324-.032.713zm-3.613-.923h2.446q.016-1.102-.332-1.685-.348-.583-.834-.583-.567 0-.9.688-.331.689-.38 1.58zM287.712 12.992v-7.84q.859-.162 1.766-.162.534 0 1.012.089t.924.291q.445.203.713.6.267.397.267.964 0 .68-.438 1.182-.437.502-1.117.68v.033q.874.146 1.377.656.502.51.502 1.304 0 .648-.308 1.118-.308.47-.834.713-.527.243-1.086.348-.559.105-1.174.105-.826 0-1.604-.08zm1.231-7.03V8.44h.551q.632 0 1.166-.372.535-.373.535-.956 0-1.215-1.62-1.215-.243 0-.632.065zm-.016 3.37v2.802q.437.048.632.048.81 0 1.36-.332.551-.332.551-1.06 0-.73-.59-1.094-.592-.365-1.418-.365zM294.095 5.12h1.215V8.52h.178l2.057-3.402h1.377l-2.446 3.532q1.377.227 1.912 2.22.453 1.62.648 2.089h-1.28q-.162-.389-.567-1.83-.227-.86-.624-1.28-.397-.422-1.126-.422h-.13v3.532h-1.214zM300.77 5.12h4.146v7.84h-1.247V6.14h-1.717v2.495q0 1.879-.26 2.867-.259.988-1.052 1.377-.39.194-.843.194l-.21-.988q.388-.065.648-.356.534-.535.534-3.013zM306.65 5.12h1.215v3.288h.972q.13-1.701.818-2.56.688-.858 1.644-.858 1.053 0 1.742 1.045.688 1.044.688 3.005 0 2.073-.745 3.061-.745.989-1.75.989-1.004 0-1.676-.932-.673-.931-.737-2.746h-.956v3.548h-1.215zm4.617 6.981h.016q.356 0 .607-.291.252-.292.373-.786.122-.494.178-.98.057-.486.057-1.004 0-.503-.057-.989-.056-.486-.186-.98t-.389-.793q-.259-.3-.615-.3-.373 0-.632.3-.26.3-.38.793-.122.494-.18.972-.056.478-.056.997 0 1.215.292 2.138.291.923.972.923zM314.96 5.12h1.248v2.996q0 1.393 1.085 1.393.551 0 1.15-.356V5.119h1.248v7.873h-1.248V10.06h-.032q-.616.405-1.49.405-.924 0-1.442-.55-.519-.551-.519-1.604zM325.571 7.776v3.402q0 1.28.081 1.782h-1.117l-.081-.826h-.049q-.535.956-1.555.956-.81 0-1.337-.616-.526-.616-.526-1.62 0-1.393.947-2.114.948-.721 2.39-.737V7.76q0-.859-.275-1.32-.276-.462-.972-.462-.713 0-1.296.405l-.276-.875q.73-.518 1.83-.518 2.236 0 2.236 2.786zm-1.215 2.705V8.894q-2.154 0-2.154 1.83 0 .713.283 1.053.284.34.673.34.42 0 .729-.307.307-.308.42-.875.05-.21.05-.454zM331.744 5.168v7.792h-1.215V9.607h-.373q-.745 0-1.15.372-.178.162-.324.454-.146.291-.21.534-.066.243-.17.713-.106.47-.171.697-.113.372-.21.583h-1.313q.243-.405.357-.81.048-.162.154-.6.105-.437.178-.696.073-.26.218-.591.146-.332.34-.543.373-.405.973-.518v-.033q-.746-.146-1.24-.64t-.494-1.288q0-1.02.794-1.636.729-.583 2.17-.583 1.038 0 1.686.146zm-1.215 3.596V5.945q-.211-.064-.535-.064-.713 0-1.183.348-.47.348-.47 1.045 0 .696.51 1.093.511.397 1.192.397zM339.665 11.81l.179.956q-.503.291-1.296.291-1.313 0-2.09-1.028-.778-1.03-.778-2.94 0-1.75.834-2.917.835-1.166 2.26-1.166.697 0 1.102.259l-.243 1.004q-.421-.21-.891-.21-.891 0-1.353.883-.461.883-.461 2.146 0 1.377.494 2.155.494.777 1.352.777.486 0 .891-.21zM340.897 16.07V7.565q0-.243-.065-2.446h1.118l.064.988h.033q.567-1.117 1.652-1.117 1.053 0 1.66 1.06.608 1.062.608 2.973 0 2.042-.704 3.054-.705 1.013-1.71 1.013-.955 0-1.377-.891h-.032v3.871zm1.247-7.986v2.009q0 .388.065.648.291 1.312 1.134 1.312.729 0 1.053-.843.324-.842.324-2.154 0-1.329-.34-2.163-.34-.834-1.037-.834-.421 0-.762.437-.34.438-.388.988-.049.195-.049.6zM349.596 13.09h-.016q-1.118 0-1.83-1.03-.714-1.028-.714-3.004 0-2.025.762-3.046.761-1.02 1.863-1.02 1.118 0 1.822 1.028.705 1.029.705 3.005 0 2.09-.77 3.078-.769.989-1.822.989zm.032-.989h.017q.502 0 .81-.534.307-.535.396-1.167.09-.631.09-1.36 0-.73-.09-1.353-.089-.624-.405-1.166-.315-.543-.834-.543-.389 0-.672.3-.284.3-.413.793-.13.494-.186.972-.057.478-.057.997 0 .55.057 1.036.056.486.194.972t.413.77q.275.283.68.283zM353.581 5.12h1.215V8.52h.178l2.058-3.402h1.377l-2.446 3.532q1.377.227 1.911 2.22.454 1.62.648 2.089h-1.28q-.162-.389-.567-1.83-.226-.86-.623-1.28-.397-.422-1.126-.422h-.13v3.532h-1.215zM362.07 5.12h4.747v7.84h-1.248V6.156h-2.252v6.804h-1.247zM368.534 16.07V7.565q0-.243-.065-2.446h1.118l.065.988h.032q.567-1.117 1.652-1.117 1.053 0 1.66 1.06.608 1.062.608 2.973 0 2.042-.704 3.054-.705 1.013-1.71 1.013-.955 0-1.376-.891h-.033v3.871zm1.247-7.986v2.009q0 .388.065.648.292 1.312 1.134 1.312.729 0 1.053-.843.324-.842.324-2.154 0-1.329-.34-2.163-.34-.834-1.037-.834-.421 0-.761.437-.34.438-.39.988-.048.195-.048.6zM379.517 9.153h-3.628q.016 2.916 1.846 2.916.746 0 1.296-.292l.211.908q-.664.372-1.733.372-1.377 0-2.106-1.045-.73-1.045-.73-2.891 0-1.896.73-3.014.729-1.117 1.911-1.117 1.118 0 1.677.996.559.996.559 2.454 0 .324-.033.713zm-3.612-.923h2.446q.016-1.102-.332-1.685-.348-.583-.834-.583-.567 0-.9.688-.332.689-.38 1.58zM381.737 5.12h3.985v6.868l.664.016-.065 3.046h-.955l-.081-2.09h-4.067l-.08 2.09h-.956l-.065-3.046.518-.016q.502-.761.745-1.669.357-1.312.357-2.916zm1.101 1.004v1.15q0 1.928-.34 3.11-.243.924-.615 1.588h2.608V6.124zM389.788 13.09h-.016q-1.118 0-1.83-1.03-.713-1.028-.713-3.004 0-2.025.761-3.046.761-1.02 1.863-1.02 1.118 0 1.822 1.028.705 1.029.705 3.005 0 2.09-.77 3.078-.769.989-1.822.989zm.033-.989h.016q.502 0 .81-.534.308-.535.397-1.167.089-.631.089-1.36 0-.73-.09-1.353-.088-.624-.404-1.166-.316-.543-.835-.543-.388 0-.672.3-.283.3-.413.793-.13.494-.186.972-.057.478-.057.997 0 .55.057 1.036.056.486.194.972t.413.77q.276.283.68.283zM397.418 11.81l.179.956q-.503.291-1.296.291-1.313 0-2.09-1.028-.778-1.03-.778-2.94 0-1.75.834-2.917.835-1.166 2.26-1.166.697 0 1.102.259l-.243 1.004q-.421-.21-.891-.21-.891 0-1.353.883-.461.883-.461 2.146 0 1.377.494 2.155.494.777 1.352.777.486 0 .891-.21zM398.342 5.12h4.811v1.036h-1.782v6.804h-1.247V6.156h-1.782zM408.078 7.776v3.402q0 1.28.081 1.782h-1.118l-.08-.826h-.05q-.534.956-1.555.956-.81 0-1.336-.616-.527-.616-.527-1.62 0-1.393.948-2.114.948-.721 2.39-.737V7.76q0-.859-.276-1.32-.275-.462-.972-.462-.713 0-1.296.405l-.275-.875q.729-.518 1.83-.518 2.236 0 2.236 2.786zm-1.215 2.705V8.894q-2.155 0-2.155 1.83 0 .713.284 1.053.283.34.672.34.421 0 .73-.307.307-.308.42-.875.049-.21.049-.454zM409.844 12.992v-7.84q.858-.162 1.766-.162.534 0 1.012.089t.923.291q.446.203.713.6.268.397.268.964 0 .68-.438 1.182-.437.502-1.118.68v.033q.875.146 1.377.656.503.51.503 1.304 0 .648-.308 1.118-.308.47-.834.713-.527.243-1.086.348-.559.105-1.174.105-.827 0-1.604-.08zm1.231-7.03V8.44h.55q.633 0 1.167-.372.535-.373.535-.956 0-1.215-1.62-1.215-.243 0-.632.065zm-.016 3.37v2.802q.437.048.632.048.81 0 1.36-.332.551-.332.551-1.06 0-.73-.591-1.094-.591-.365-1.418-.365zM416.55 5.12h4.148v7.84h-1.248V6.14h-1.717v2.495q0 1.879-.259 2.867-.26.988-1.053 1.377-.389.194-.842.194l-.211-.988q.389-.065.648-.356.535-.535.535-3.013zM426.935 9.153h-3.629q.016 2.916 1.847 2.916.745 0 1.296-.292l.21.908q-.664.372-1.733.372-1.377 0-2.106-1.045-.729-1.045-.729-2.891 0-1.896.729-3.014.729-1.117 1.912-1.117 1.117 0 1.676.996.56.996.56 2.454 0 .324-.033.713zm-3.613-.923h2.446q.017-1.102-.332-1.685-.348-.583-.834-.583-.567 0-.9.688-.331.689-.38 1.58zM428.312 5.12h1.247v3.32h2.317V5.12h1.247v7.84h-1.247V9.51h-2.317v3.45h-1.247zM434.873 5.12h1.134v2.688q0 2.317-.114 3.759h.033q.259-.745 1.166-3.062l1.312-3.386h1.313v7.841h-1.15v-2.592q0-1.88.129-3.823h-.049q-.324 1.182-.94 2.721-.971 2.43-1.554 3.694h-1.28zM445.856 5.168v7.792h-1.215V9.607h-.372q-.745 0-1.15.372-.179.162-.324.454-.146.291-.211.534-.065.243-.17.713-.105.47-.17.697-.114.372-.21.583h-1.313q.243-.405.356-.81.049-.162.154-.6.106-.437.179-.696.072-.26.218-.591.146-.332.34-.543.373-.405.972-.518v-.033q-.745-.146-1.239-.64-.494-.494-.494-1.288 0-1.02.794-1.636.729-.583 2.17-.583 1.037 0 1.685.146zm-1.215 3.596V5.945q-.21-.064-.534-.064-.713 0-1.183.348-.47.348-.47 1.045 0 .696.51 1.093.511.397 1.191.397z" stroke-width=".0162"/></g><g fill="#fff" stroke="#000"><path d="M450.247 2.041h4.6v1.086h-3.37v3.272q.39-.065.827-.065 1.442 0 2.333.859.923.875.923 2.381 0 1.474-.794 2.365-.94 1.086-2.9 1.086-1.02 0-1.62-.114zm1.23 5.379v4.552q.309.048.633.048 1.053 0 1.668-.745.486-.664.486-1.62 0-.972-.567-1.62-.615-.664-1.604-.664-.275 0-.615.049zM459.124 13.09h-.016q-1.118 0-1.83-1.03-.713-1.028-.713-3.004 0-2.025.761-3.046.761-1.02 1.863-1.02 1.118 0 1.822 1.028.705 1.029.705 3.005 0 2.09-.77 3.078-.769.989-1.822.989zm.033-.989h.016q.502 0 .81-.534.308-.535.397-1.167.089-.631.089-1.36 0-.73-.09-1.353-.088-.624-.404-1.166-.316-.543-.835-.543-.388 0-.672.3-.283.3-.413.793-.13.494-.186.972-.057.478-.057.997 0 .55.057 1.036.056.486.194.972t.413.77q.276.283.68.283zM463.11 5.12h1.247v3.32h2.316V5.12h1.248v7.84h-1.248V9.51h-2.316v3.45h-1.248zM468.893 5.12h1.312l1.037 4.503q.08.34.178.875.097.534.146.745h.032q.097-.535.34-1.604l.924-4.52h1.231l-1.28 5.038q-.923 3.726-1.944 5.055-.648.826-1.41 1.182l-.453-1.053q.616-.356 1.102-.988.47-.615.713-1.328.08-.227.08-.389 0-.194-.032-.292zM478.645 11.81l.178.956q-.502.291-1.296.291-1.312 0-2.09-1.028-.777-1.03-.777-2.94 0-1.75.834-2.917.835-1.166 2.26-1.166.697 0 1.102.259l-.243 1.004q-.421-.21-.891-.21-.891 0-1.353.883-.462.883-.462 2.146 0 1.377.494 2.155.495.777 1.353.777.486 0 .891-.21zM484.12 7.776v3.402q0 1.28.082 1.782h-1.118l-.081-.826h-.049q-.534.956-1.555.956-.81 0-1.336-.616-.527-.616-.527-1.62 0-1.393.948-2.114.948-.721 2.39-.737V7.76q0-.859-.276-1.32-.275-.462-.972-.462-.713 0-1.296.405l-.275-.875q.729-.518 1.83-.518 2.236 0 2.236 2.786zm-1.214 2.705V8.894q-2.155 0-2.155 1.83 0 .713.284 1.053.283.34.672.34.421 0 .729-.307.308-.308.421-.875.049-.21.049-.454zM486.632 13.09h-.016q-.34 0-.576-.26-.234-.259-.234-.68 0-.405.243-.672.243-.268.583-.268.372 0 .6.26.226.259.226.68 0 .437-.219.689-.218.25-.607.25z" stroke-width=".0162"/></g><g fill="#fff" stroke="#000"><path d="M.972 19.861h5.476V30.78H5.2v-9.833H2.22v9.833H.971zM10.514 30.91h-.016q-1.118 0-1.831-1.03-.713-1.028-.713-3.004 0-2.025.762-3.046.761-1.02 1.863-1.02 1.117 0 1.822 1.028.705 1.029.705 3.005 0 2.09-.77 3.078-.77.989-1.822.989zm.032-.989h.016q.503 0 .81-.534.308-.535.397-1.167.09-.631.09-1.36 0-.73-.09-1.353-.089-.624-.405-1.166-.316-.543-.834-.543-.389 0-.672.3-.284.3-.413.793-.13.494-.187.972-.056.478-.056.997 0 .55.056 1.036.057.486.195.972.137.486.413.77.275.283.68.283zM15.18 22.94h3.985v6.868l.664.016-.065 3.046h-.956l-.08-2.09H14.66l-.081 2.09h-.956l-.065-3.046.519-.016q.502-.761.745-1.669.356-1.312.356-2.916zm1.101 1.004v1.15q0 1.928-.34 3.11-.243.924-.616 1.588h2.608v-5.848zM21.076 33.89v-8.505q0-.243-.065-2.446h1.118l.065.988h.032q.567-1.117 1.653-1.117 1.053 0 1.66 1.06.608 1.062.608 2.973 0 2.042-.705 3.054-.705 1.013-1.709 1.013-.956 0-1.377-.891h-.032v3.871zm1.248-7.986v2.009q0 .388.064.648.292 1.312 1.134 1.312.73 0 1.053-.843.324-.842.324-2.154 0-1.329-.34-2.163-.34-.834-1.037-.834-.42 0-.761.437-.34.438-.389.988-.048.195-.048.6zM29.776 30.91h-.017q-1.117 0-1.83-1.03-.713-1.028-.713-3.004 0-2.025.761-3.046.762-1.02 1.863-1.02 1.118 0 1.823 1.028.705 1.029.705 3.005 0 2.09-.77 3.078-.77.989-1.822.989zm.032-.989h.016q.502 0 .81-.534.308-.535.397-1.167.09-.631.09-1.36 0-.73-.09-1.353-.089-.624-.405-1.166-.316-.543-.834-.543-.389 0-.673.3-.283.3-.413.793-.13.494-.186.972-.057.478-.057.997 0 .55.057 1.036t.194.972q.138.486.414.77.275.283.68.283zM38.135 19.44l-.065 1.085q-.178.081-.697.203-.518.121-.729.186-1.134.227-1.636 1.28-.372.859-.486 2.041h.049q.194-.55.68-.923.486-.373 1.102-.373 1.037 0 1.66.94.624.94.624 2.916 0 2.025-.672 3.078-.673 1.053-1.871 1.053-.762 0-1.304-.446-.543-.445-.81-1.198-.268-.754-.381-1.515-.114-.762-.114-1.636 0-3.03.746-4.472.68-1.409 2.187-1.798.162-.048.826-.186.664-.138.89-.235zm-.745 7.468v-.016q0-.486-.057-.94-.057-.453-.186-.94-.13-.485-.413-.777-.284-.291-.673-.291-.761 0-1.118.874-.259.68-.259 1.669 0 .454.049.94.048.486.178 1.093.13.608.43.996.299.39.736.39.405 0 .68-.309.276-.307.406-.81.13-.502.178-.947.049-.446.049-.932zM40.046 22.94h1.248v3.32h2.316v-3.32h1.248v7.84H43.61v-3.45h-2.316v3.45h-1.248zM51.111 26.973h-3.629q.016 2.916 1.847 2.916.745 0 1.296-.292l.21.908q-.664.372-1.733.372-1.377 0-2.106-1.045-.729-1.045-.729-2.891 0-1.896.73-3.014.728-1.117 1.91-1.117 1.119 0 1.677.996.56.996.56 2.454 0 .324-.033.713zm-3.613-.923h2.447q.016-1.102-.333-1.685-.348-.583-.834-.583-.567 0-.899.688-.332.689-.38 1.58zM56.992 26.973h-3.63q.017 2.916 1.848 2.916.745 0 1.296-.292l.21.908q-.664.372-1.733.372-1.377 0-2.106-1.045-.73-1.045-.73-2.891 0-1.896.73-3.014.729-1.117 1.911-1.117 1.118 0 1.677.996.559.996.559 2.454 0 .324-.032.713zm-3.613-.923h2.446q.016-1.102-.332-1.685-.348-.583-.834-.583-.567 0-.9.688-.331.689-.38 1.58zM60.912 22.94h1.247v3.32h2.317v-3.32h1.247v7.84h-1.247v-3.45h-2.317v3.45h-1.247zM71.604 25.596v3.402q0 1.28.081 1.782h-1.118l-.08-.826h-.05q-.534.956-1.555.956-.81 0-1.336-.616-.527-.616-.527-1.62 0-1.393.948-2.114.948-.721 2.39-.737v-.243q0-.859-.276-1.32-.275-.462-.972-.462-.713 0-1.296.405l-.275-.875q.729-.518 1.83-.518 2.236 0 2.236 2.786zm-1.215 2.705v-1.587q-2.155 0-2.155 1.83 0 .713.284 1.053.283.34.672.34.421 0 .73-.307.307-.308.42-.875.049-.21.049-.454zM76.189 21.61l1.247-.501v1.83h1.507v.94h-1.507v4.665q0 1.296.81 1.296.308 0 .502-.048l.065.956q-.356.13-.923.13-.827 0-1.232-.47-.47-.519-.47-1.977v-4.552h-.955v-.94h.956zM81.292 30.78h-1.248v-7.84h1.248zm-.648-9.056h-.017q-.307 0-.51-.227-.202-.226-.202-.583 0-.356.21-.583.21-.227.519-.227.34 0 .542.219.203.219.203.591 0 .373-.203.591-.202.22-.542.22zM83.025 30.78v-5.816q0-.534-.032-1.215-.033-.68-.033-.81h1.086l.064.94h.033q.583-1.07 1.798-1.07.859 0 1.377.665.518.664.518 2.041v5.265H86.59v-5.054q0-1.863-1.085-1.863-.405 0-.737.332-.333.332-.43.947-.065.243-.065.697v4.941zM90.817 19.57v7.014h.033q.372-.794.42-.875l1.556-2.77h1.345l-2.074 3.305 2.268 4.536h-1.393l-1.701-3.694-.454.73v2.964H89.57V19.57zM97.297 30.91h-.016q-1.118 0-1.83-1.03-.713-1.028-.713-3.004 0-2.025.761-3.046.761-1.02 1.863-1.02 1.118 0 1.822 1.028.705 1.029.705 3.005 0 2.09-.77 3.078-.769.989-1.822.989zm.033-.989h.016q.502 0 .81-.534.308-.535.397-1.167.089-.631.089-1.36 0-.73-.09-1.353-.088-.624-.404-1.166-.316-.543-.835-.543-.388 0-.672.3-.283.3-.413.793-.13.494-.186.972-.057.478-.057.997 0 .55.057 1.036.056.486.194.972t.413.77q.276.283.68.283zM106.402 30.78h-1.248v-6.901h-2.365v6.901h-1.247v-6.901h-.989v-.94h.989v-.389q0-1.539.712-2.3.584-.616 1.62-.616.454 0 .81.146l-.226.988q-.26-.113-.6-.113-.583 0-.826.47t-.243 1.41v.404h2.365v-.486q0-1.571.697-2.349.6-.664 1.571-.664.583 0 .972.194l-.194.972q-.324-.13-.697-.13-1.101 0-1.101 1.961v.502h1.425v.94h-1.425zM108.767 30.91h-.016q-.34 0-.576-.26-.234-.259-.234-.68 0-.405.243-.672.243-.268.583-.268.372 0 .6.26.226.259.226.68 0 .437-.219.689-.218.25-.607.25zM111.148 30.78v-5.816q0-.389-.032-1.158-.033-.77-.033-.867h1.118l.065 1.231h.032q.195-.583.656-.972.462-.388.997-.388.178 0 .259.016v1.28q-.081-.017-.26-.017-.582 0-.996.47-.413.47-.51 1.167-.048.324-.048.712v4.342zM119.88 22.94v5.702q0 .518.032 1.32l.033.818h-1.086l-.097-.826h-.032q-.21.356-.656.656-.446.3-1.013.3-1.911 0-1.911-3.014V22.94h1.247v4.78q0 1.02.227 1.579.227.559.826.559.486 0 .77-.34.283-.34.348-.713.065-.276.065-.697v-5.168zM122.261 30.91h-.016q-.34 0-.575-.26-.235-.259-.235-.68 0-.405.243-.672.243-.268.583-.268.373 0 .6.26.227.259.227.68 0 .437-.22.689-.218.25-.607.25z" stroke-width=".0162"/></g><g fill="#fff" stroke="#000"><path d="M131.042 27.508h-2.43l-.713 3.272h-1.215l2.495-10.919h1.377l2.43 10.919h-1.231zm-2.252-1.005h2.074l-.567-2.77q-.162-.794-.438-2.495h-.048q-.243 1.523-.454 2.511zM136.615 30.91h-.017q-1.393 0-2.21-1.45-.819-1.45-.819-4.156 0-2.656.875-4.114.875-1.458 2.333-1.458 1.393 0 2.187 1.45.793 1.45.793 4.058 0 2.9-.866 4.285-.867 1.385-2.276 1.385zm.064-1.102h.017q.502 0 .858-.397.357-.397.551-1.077.194-.68.275-1.426.081-.745.081-1.62 0-.826-.08-1.563-.082-.737-.276-1.418-.194-.68-.559-1.077-.364-.397-.867-.397-.664 0-1.093.713-.43.713-.575 1.66-.146.948-.146 2.098 0 .859.09 1.612.088.754.283 1.426.194.672.567 1.07.372.396.874.396zM145.897 23.863l-1.668 2.835 1.668 2.818h-1.02l-1.653-2.818 1.669-2.835zm2.317 0l-1.685 2.835 1.685 2.818h-1.02l-1.653-2.818 1.668-2.835zM150.806 30.78v-9.801h-1.993v-1.118h5.233v1.118h-1.993v9.801zM153.803 22.94h1.134v2.688q0 2.317-.114 3.759h.033q.259-.745 1.166-3.062l1.312-3.386h1.313v7.841h-1.15v-2.592q0-1.88.129-3.823h-.049q-.324 1.182-.94 2.721-.971 2.43-1.554 3.694h-1.28zM160.38 22.94h1.247v3.32h2.317v-3.32h1.247v7.84h-1.247v-3.45h-2.317v3.45h-1.247zM166.941 22.94h1.231v2.77q.114 0 .373-.025.259-.024.372-.024 1.296 0 2.147.64.85.64.85 1.887 0 1.215-.874 1.912-.924.761-2.495.761-.794 0-1.604-.13zm1.231 3.725v3.192q.389.032.551.032.826 0 1.369-.421t.543-1.231q0-.81-.551-1.207t-1.393-.397q-.195 0-.519.032zM173.227 22.94h1.215v3.401h.178l2.057-3.402h1.377l-2.446 3.532q1.377.227 1.912 2.22.453 1.62.648 2.089h-1.28q-.162-.389-.567-1.83-.227-.86-.624-1.28-.397-.422-1.126-.422h-.13v3.532h-1.214zM181.391 30.91h-.016q-1.118 0-1.83-1.03-.713-1.028-.713-3.004 0-2.025.761-3.046.762-1.02 1.863-1.02 1.118 0 1.823 1.028.704 1.029.704 3.005 0 2.09-.77 3.078-.769.989-1.822.989zm.033-.989h.016q.502 0 .81-.534.308-.535.397-1.167.089-.631.089-1.36 0-.73-.09-1.353-.088-.624-.404-1.166-.316-.543-.834-.543-.39 0-.673.3-.283.3-.413.793-.13.494-.186.972-.057.478-.057.997 0 .55.057 1.036t.194.972q.138.486.413.77.276.283.68.283zM187.79 19.7h1.134v3.11q1.296.162 2.042 1.182.745 1.02.745 2.868 0 1.863-.73 2.883-.728 1.02-2.057 1.167v2.98h-1.134v-2.98q-1.296-.146-2.025-1.159-.729-1.012-.729-2.875 0-1.83.73-2.851.728-1.021 2.024-1.2zm.017 10.351v-6.383q-.859.21-1.232 1.118-.372.907-.372 2.074 0 1.166.372 2.081.373.916 1.232 1.11zm1.117-6.383v6.383q1.62-.389 1.62-3.191 0-.73-.121-1.337-.122-.607-.502-1.15-.381-.543-.997-.705zM195.518 19.7h1.134v3.11q1.296.162 2.041 1.182.745 1.02.745 2.868 0 1.863-.729 2.883t-2.057 1.167v2.98h-1.134v-2.98q-1.296-.146-2.025-1.159-.73-1.012-.73-2.875 0-1.83.73-2.851.729-1.021 2.025-1.2zm.016 10.351v-6.383q-.859.21-1.231 1.118-.373.907-.373 2.074 0 1.166.373 2.081.372.916 1.231 1.11zm1.118-6.383v6.383q1.62-.389 1.62-3.191 0-.73-.122-1.337-.121-.607-.502-1.15-.38-.543-.996-.705zM203.488 19.861h4.601v1.086h-3.37v3.272q.39-.065.827-.065 1.441 0 2.332.859.924.875.924 2.381 0 1.474-.794 2.365-.94 1.086-2.9 1.086-1.02 0-1.62-.114zm1.231 5.379v4.552q.308.048.632.048 1.053 0 1.669-.745.486-.664.486-1.62 0-.972-.567-1.62-.616-.664-1.604-.664-.275 0-.616.049zM214.277 25.596v3.402q0 1.28.081 1.782h-1.117l-.081-.826h-.049q-.535.956-1.555.956-.81 0-1.337-.616-.526-.616-.526-1.62 0-1.393.947-2.114.948-.721 2.39-.737v-.243q0-.859-.275-1.32-.276-.462-.972-.462-.713 0-1.296.405l-.276-.875q.73-.518 1.83-.518 2.236 0 2.236 2.786zm-1.215 2.705v-1.587q-2.154 0-2.154 1.83 0 .713.283 1.053.284.34.673.34.42 0 .729-.307.307-.308.42-.875.05-.21.05-.454zM216.043 22.94h1.248v3.32h2.316v-3.32h1.248v7.84h-1.248v-3.45h-2.316v3.45h-1.248zM222.604 22.94h1.215v3.401h.178l2.058-3.402h1.377l-2.446 3.532q1.377.227 1.911 2.22.454 1.62.648 2.089h-1.28q-.162-.389-.567-1.83-.226-.86-.623-1.28-.397-.422-1.126-.422h-.13v3.532h-1.215zM229.7 26.698l-1.685-2.835h1.004l1.669 2.835-1.636 2.818h-1.037zm2.3 0l-1.668-2.835h1.004l1.669 2.835-1.653 2.818h-1.02zM234.544 32.708l-.859.113q.648-1.814.94-3.774l1.409-.162q-.292 1.02-.729 2.162t-.761 1.66zM240.295 22.94h4.147v7.84h-1.248v-6.82h-1.717v2.495q0 1.879-.259 2.867-.26.988-1.053 1.377-.389.194-.842.194l-.211-.988q.389-.065.648-.356.535-.535.535-3.013zM246.175 22.94h1.134v2.688q0 2.317-.113 3.759h.032q.26-.745 1.167-3.062l1.312-3.386h1.312v7.841h-1.15v-2.592q0-1.88.13-3.823h-.05q-.323 1.182-.939 2.721-.972 2.43-1.555 3.694h-1.28zM252.752 22.94H254v6.803h2.235V22.94h1.248v6.869l.664.016-.065 3.046h-.956l-.08-2.09h-4.294zM263.833 26.973h-3.629q.017 2.916 1.847 2.916.745 0 1.296-.292l.21.908q-.663.372-1.733.372-1.377 0-2.106-1.045-.729-1.045-.729-2.891 0-1.896.73-3.014.728-1.117 1.911-1.117 1.118 0 1.677.996.559.996.559 2.454 0 .324-.033.713zm-3.612-.923h2.446q.016-1.102-.332-1.685-.349-.583-.835-.583-.567 0-.899.688-.332.689-.38 1.58zM265.21 22.94h1.248v3.32h2.316v-3.32h1.248v7.84h-1.248v-3.45h-2.316v3.45h-1.248zM272.338 27.167l.016-.907h.422q.631 0 1.117-.372.486-.373.486-.989 0-.567-.348-.866-.348-.3-.899-.3-.664 0-1.393.405l-.243-.794q.81-.534 1.944-.534.972 0 1.58.518.607.518.607 1.426 0 .696-.446 1.182-.445.486-1.158.68v.017q.842.13 1.369.648.526.518.526 1.328 0 1.102-.85 1.701-.85.6-2.033.6-1.053 0-1.847-.438l.275-.89q.746.388 1.475.388.761 0 1.239-.397.478-.397.478-.964 0-.745-.551-1.093-.55-.349-1.312-.349zM277.312 22.94h1.134v2.688q0 2.317-.114 3.759h.033q.259-.745 1.166-3.062l1.312-3.386h1.312v7.841h-1.15v-2.592q0-1.88.13-3.823h-.049q-.324 1.182-.94 2.721-.971 2.43-1.555 3.694h-1.28zM288.295 22.988v7.792h-1.215v-3.353h-.372q-.746 0-1.15.372-.179.162-.325.454-.145.291-.21.534-.065.243-.17.713-.106.47-.17.697-.114.372-.211.583h-1.312q.243-.405.356-.81.049-.162.154-.6.105-.437.178-.696.073-.26.219-.591.146-.332.34-.543.373-.405.972-.518v-.033q-.745-.146-1.24-.64-.493-.494-.493-1.288 0-1.02.794-1.636.729-.583 2.17-.583 1.037 0 1.685.146zm-1.215 3.596v-2.819q-.21-.064-.534-.064-.713 0-1.183.348-.47.348-.47 1.045 0 .696.51 1.093t1.191.397zM300.737 20.185h.016q.907 0 1.393.673.486.672.486 1.984 0 1.377-.559 2.033-.559.656-1.369.656-.874 0-1.409-.688-.535-.689-.535-1.985 0-1.296.56-1.984.558-.689 1.417-.689zm-.049.73h-.016q-.47 0-.697.607-.226.607-.226 1.336 0 .762.234 1.353.235.591.705.591.956 0 .956-1.944t-.956-1.944zm1.685 6.058h-3.353v-.761h3.353zm-8.602 3.807h-1.102V19.975h1.15l1.896 5.086q.875 2.317 1.328 3.775h.016q-.13-2.754-.13-4.957v-3.904h1.086V30.78h-1.166l-1.944-5.2q-.583-1.507-1.231-3.678h-.017q.114 2.042.114 5.12zM308.691 30.78h-5.054v-.81l.874-1.199q.697-.972.997-1.41.3-.437.81-1.295.51-.859.72-1.58.211-.72.211-1.417 0-.891-.38-1.385-.381-.494-1.11-.494-.68 0-1.523.583l-.308-.94q.859-.713 2.058-.713 1.247 0 1.879.81.632.81.632 2.074 0 1.328-.689 2.673-.688 1.345-1.92 2.997l-.696.972v.032h3.499zM314.523 20.12v1.053q-.308 0-.745.098-2.187.55-2.706 3.807h.049q.68-1.005 1.782-1.005 1.004 0 1.636.875.632.875.632 2.365 0 1.555-.689 2.576-.688 1.02-1.903 1.02-1.345 0-2.057-1.198-.713-1.199-.713-3.094 0-2.884 1.36-4.747.454-.648 1.143-1.077.688-.43 1.417-.575.26-.049.794-.098zm-1.944 9.818h.016q.567 0 .948-.624.38-.624.38-1.904 0-1.166-.38-1.773-.38-.608-1.029-.608-.94 0-1.377 1.134-.08.243-.08.632.015 1.555.428 2.349.414.794 1.094.794zM316.192 20.25h5.07v.745l-3.402 9.785h-1.215l3.337-9.396v-.032h-3.79zM322.283 30.424l.275-.989q.73.438 1.523.438.826 0 1.32-.567.494-.567.494-1.523 0-1.02-.583-1.604-.583-.583-1.539-.583h-.291v-.94h.243q.664 0 1.28-.494.615-.494.615-1.385 0-.777-.38-1.199-.381-.42-1.013-.42-.616 0-1.312.501l-.26-.94q.73-.599 1.88-.599 1.085 0 1.709.68.623.681.623 1.734 0 .81-.405 1.474-.405.665-1.166 1.005v.032q.794.21 1.32.907.527.697.527 1.863 0 1.329-.81 2.212-.81.883-2.203.883-1.15 0-1.847-.486zM329.686 30.91h-.016q-.34 0-.575-.26-.235-.259-.235-.68 0-.405.243-.672.243-.268.583-.268.373 0 .6.26.226.259.226.68 0 .437-.218.689-.219.25-.608.25zM334.724 30.78V20.023q.81-.21 1.815-.21 1.62 0 2.43.793.794.794.794 2.268 0 1.361-.665 2.236-.42.583-1.117.9-.697.315-1.458.315-.373 0-.551-.016v4.471zm1.248-9.866v4.358q.291.032.502.032.94 0 1.49-.607.551-.608.551-1.742 0-.94-.437-1.53-.438-.592-1.41-.592-.42 0-.696.081zM345.19 26.973h-3.63q.017 2.916 1.848 2.916.745 0 1.296-.292l.21.908q-.664.372-1.733.372-1.377 0-2.106-1.045-.73-1.045-.73-2.891 0-1.896.73-3.014.729-1.117 1.911-1.117 1.118 0 1.677.996.559.996.559 2.454 0 .324-.032.713zm-3.613-.923h2.446q.016-1.102-.332-1.685-.348-.583-.834-.583-.567 0-.9.688-.331.689-.38 1.58zM346.567 22.94h1.215v3.401h.178l2.057-3.402h1.377l-2.446 3.532q1.377.227 1.912 2.22.453 1.62.648 2.089h-1.28q-.162-.389-.567-1.83-.227-.86-.624-1.28-.397-.422-1.126-.422h-.13v3.532h-1.214zM353.241 22.94h4.147v7.84h-1.247v-6.82h-1.717v2.495q0 1.879-.26 2.867-.259.988-1.053 1.377-.388.194-.842.194l-.21-.988q.388-.065.647-.356.535-.535.535-3.013zM363.253 25.596v3.402q0 1.28.08 1.782h-1.117l-.081-.826h-.049q-.534.956-1.555.956-.81 0-1.336-.616-.527-.616-.527-1.62 0-1.393.948-2.114.947-.721 2.39-.737v-.243q0-.859-.276-1.32-.276-.462-.972-.462-.713 0-1.296.405l-.276-.875q.73-.518 1.831-.518 2.236 0 2.236 2.786zm-1.215 2.705v-1.587q-2.155 0-2.155 1.83 0 .713.284 1.053.283.34.672.34.421 0 .729-.307.308-.308.421-.875.049-.21.049-.454zM364.76 30.78l.55-7.84h1.458l1.037 3.434q.389 1.328.696 2.51h.033q.405-1.603.664-2.51l1.004-3.435h1.49l.535 7.841h-1.166l-.162-3.37q-.081-1.668-.113-3.304h-.033q-.405 1.7-.777 3.013l-1.07 3.612H368l-1.02-3.483q-.422-1.506-.794-3.142h-.049q0 1.134-.097 3.37l-.146 3.304zM377.865 25.596v3.402q0 1.28.081 1.782h-1.118l-.08-.826h-.05q-.534.956-1.555.956-.81 0-1.336-.616-.527-.616-.527-1.62 0-1.393.948-2.114.948-.721 2.39-.737v-.243q0-.859-.276-1.32-.275-.462-.972-.462-.713 0-1.296.405l-.275-.875q.729-.518 1.83-.518 2.236 0 2.236 2.786zm-1.215 2.705v-1.587q-2.155 0-2.155 1.83 0 .713.284 1.053.283.34.672.34.421 0 .73-.307.307-.308.42-.875.049-.21.049-.454zM380.376 30.91h-.016q-.34 0-.575-.26-.235-.259-.235-.68 0-.405.243-.672.243-.268.583-.268.373 0 .6.26.226.259.226.68 0 .437-.218.689-.22.25-.608.25zM387.52 30.91h-.016q-1.231 0-1.928-1.41-.696-1.41-.696-3.969 0-2.624.729-4.017.729-1.394 2.04-1.394 1.264 0 1.929 1.418.664 1.417.664 3.96 0 2.739-.753 4.075-.754 1.337-1.969 1.337zm.049-1.07h.016q1.41 0 1.41-4.325 0-1.96-.349-3.143-.348-1.182-1.061-1.182-.729 0-1.093 1.158-.365 1.158-.365 3.167-.016 1.993.34 3.159.357 1.166 1.102 1.166zM395.053 22.145h.924v3.856h3.726v.891h-3.726v3.888h-.924v-3.888h-3.71v-.891h3.71z" stroke-width=".0162"/></g></svg>