<svg width="394.8" height="18" viewBox="0 0 394.8 18" xmlns="http://www.w3.org/2000/svg"><g fill="#fff" stroke="#000"><path d="M4.714 9.688h-2.43l-.713 3.272H.356L2.851 2.041h1.377l2.43 10.919H5.427zM2.462 8.683h2.074l-.567-2.77q-.162-.794-.437-2.495h-.049Q3.24 4.941 3.029 5.93zM10.287 13.09h-.016q-1.393 0-2.212-1.45-.818-1.45-.818-4.156 0-2.656.875-4.114.875-1.458 2.333-1.458 1.393 0 2.187 1.45.794 1.45.794 4.058 0 2.9-.867 4.285-.867 1.385-2.276 1.385zm.065-1.102h.016q.502 0 .859-.397.356-.397.55-1.077.195-.68.276-1.426.08-.745.08-1.62 0-.826-.08-1.563-.081-.737-.276-1.418-.194-.68-.559-1.077-.364-.397-.866-.397-.664 0-1.094.713-.429.713-.575 1.66-.146.948-.146 2.098 0 .859.09 1.612.089.754.283 1.426.194.672.567 1.07.373.396.875.396zM19.57 6.043L17.9 8.878l1.669 2.818h-1.021l-1.652-2.818 1.668-2.835zm2.316 0l-1.685 2.835 1.685 2.818h-1.02l-1.653-2.818 1.669-2.835zM24.478 12.96V3.159h-1.992V2.041h5.232V3.16h-1.992v9.801zM27.475 5.12h1.134v2.688q0 2.317-.113 3.759h.032q.26-.745 1.167-3.062l1.312-3.386h1.312v7.841h-1.15v-2.592q0-1.88.13-3.823h-.05q-.323 1.182-.939 2.721-.972 2.43-1.555 3.694h-1.28zM34.052 5.12H35.3v3.32h2.316V5.12h1.248v7.84h-1.248V9.51H35.3v3.45h-1.248zM40.613 5.12h1.232v2.77q.113 0 .372-.025.26-.024.373-.024 1.296 0 2.146.64.85.64.85 1.887 0 1.215-.874 1.912-.923.761-2.495.761-.794 0-1.604-.13zm1.232 3.725v3.192q.388.032.55.032.827 0 1.37-.421.542-.421.542-1.231t-.55-1.207q-.552-.397-1.394-.397-.194 0-.518.032zM46.899 5.12h1.215V8.52h.178L50.35 5.12h1.377L49.28 8.651q1.377.227 1.912 2.22.454 1.62.648 2.089h-1.28q-.162-.389-.567-1.83-.227-.86-.623-1.28-.397-.422-1.126-.422h-.13v3.532h-1.215zM55.064 13.09h-.016q-1.118 0-1.831-1.03-.713-1.028-.713-3.004 0-2.025.762-3.046.761-1.02 1.863-1.02 1.117 0 1.822 1.028.705 1.029.705 3.005 0 2.09-.77 3.078-.77.989-1.822.989zm.032-.989h.016q.503 0 .81-.534.308-.535.397-1.167.09-.631.09-1.36 0-.73-.09-1.353-.089-.624-.405-1.166-.316-.543-.834-.543-.389 0-.672.3-.284.3-.413.793-.13.494-.187.972-.056.478-.056.997 0 .55.056 1.036.057.486.195.972.137.486.413.77.275.283.68.283zM61.463 1.88h1.134v3.11q1.296.162 2.041 1.182.745 1.02.745 2.868 0 1.863-.729 2.883t-2.057 1.167v2.98h-1.134v-2.98q-1.296-.146-2.025-1.159-.73-1.012-.73-2.875 0-1.83.73-2.851.729-1.021 2.025-1.2zm.016 10.351V5.848q-.859.21-1.231 1.118-.373.907-.373 2.074 0 1.166.373 2.081.372.916 1.231 1.11zm1.118-6.383v6.383q1.62-.389 1.62-3.191 0-.73-.122-1.337-.121-.607-.502-1.15-.38-.543-.996-.705zM69.19 1.88h1.134v3.11q1.296.162 2.041 1.182.746 1.02.746 2.868 0 1.863-.73 2.883-.728 1.02-2.057 1.167v2.98H69.19v-2.98q-1.296-.146-2.025-1.159-.729-1.012-.729-2.875 0-1.83.73-2.851.728-1.021 2.024-1.2zm.016 10.351V5.848q-.858.21-1.23 1.118-.373.907-.373 2.074 0 1.166.372 2.081.373.916 1.231 1.11zm1.118-6.383v6.383q1.62-.389 1.62-3.191 0-.73-.121-1.337-.122-.607-.502-1.15-.381-.543-.997-.705zM77.16 2.041h4.601v1.086h-3.37v3.272q.39-.065.827-.065 1.442 0 2.333.859.923.875.923 2.381 0 1.474-.794 2.365-.94 1.086-2.9 1.086-1.02 0-1.62-.114zm1.232 5.379v4.552q.308.048.632.048 1.053 0 1.668-.745.486-.664.486-1.62 0-.972-.567-1.62-.615-.664-1.604-.664-.275 0-.615.049zM87.95 7.776v3.402q0 1.28.08 1.782h-1.117l-.081-.826h-.049q-.534.956-1.555.956-.81 0-1.336-.616-.527-.616-.527-1.62 0-1.393.948-2.114.948-.721 2.39-.737V7.76q0-.859-.276-1.32-.275-.462-.972-.462-.713 0-1.296.405l-.275-.875q.729-.518 1.83-.518 2.236 0 2.236 2.786zm-1.215 2.705V8.894q-2.155 0-2.155 1.83 0 .713.284 1.053.283.34.672.34.421 0 .729-.307.308-.308.421-.875.049-.21.049-.454zM89.716 5.12h1.247v3.32h2.317V5.12h1.247v7.84H93.28V9.51h-2.317v3.45h-1.247zM96.277 5.12h1.215V8.52h.178l2.057-3.402h1.377l-2.446 3.532q1.377.227 1.912 2.22.453 1.62.648 2.089h-1.28q-.162-.389-.567-1.83-.227-.86-.624-1.28-.397-.422-1.126-.422h-.13v3.532h-1.214zM103.372 8.878l-1.685-2.835h1.005l1.668 2.835-1.636 2.818h-1.037zm2.3 0l-1.668-2.835h1.004l1.669 2.835-1.652 2.818h-1.021zM108.216 14.888l-.859.113q.648-1.814.94-3.774l1.41-.162q-.292 1.02-.73 2.162-.437 1.142-.761 1.66zM113.967 5.12h4.147v7.84h-1.247V6.14h-1.717v2.495q0 1.879-.26 2.867-.259.988-1.053 1.377-.388.194-.842.194l-.21-.988q.388-.065.647-.356.535-.535.535-3.013zM119.848 5.12h1.134v2.688q0 2.317-.114 3.759h.033q.259-.745 1.166-3.062l1.312-3.386h1.312v7.841h-1.15v-2.592q0-1.88.13-3.823h-.049q-.324 1.182-.94 2.721-.971 2.43-1.555 3.694h-1.28zM126.425 5.12h1.247v6.803h2.236V5.12h1.247v6.869l.664.016-.064 3.046h-.956l-.081-2.09h-4.293zM137.506 9.153h-3.63q.017 2.916 1.848 2.916.745 0 1.296-.292l.21.908q-.664.372-1.733.372-1.377 0-2.106-1.045-.73-1.045-.73-2.891 0-1.896.73-3.014.729-1.117 1.911-1.117 1.118 0 1.677.996.559.996.559 2.454 0 .324-.032.713zm-3.613-.923h2.446q.016-1.102-.332-1.685-.348-.583-.834-.583-.567 0-.9.688-.331.689-.38 1.58zM138.883 5.12h1.247v3.32h2.317V5.12h1.247v7.84h-1.247V9.51h-2.317v3.45h-1.247zM146.01 9.347l.017-.907h.421q.632 0 1.118-.372.486-.373.486-.989 0-.567-.349-.866-.348-.3-.899-.3-.664 0-1.393.405l-.243-.794q.81-.534 1.944-.534.972 0 1.58.518.607.518.607 1.426 0 .696-.445 1.182-.446.486-1.159.68v.017q.843.13 1.37.648.526.518.526 1.328 0 1.102-.85 1.701-.851.6-2.034.6-1.053 0-1.847-.438l.276-.89q.745.388 1.474.388.761 0 1.24-.397.477-.397.477-.964 0-.745-.55-1.093-.551-.349-1.313-.349zM150.984 5.12h1.134v2.688q0 2.317-.113 3.759h.032q.26-.745 1.166-3.062l1.313-3.386h1.312v7.841h-1.15v-2.592q0-1.88.13-3.823h-.05q-.323 1.182-.939 2.721-.972 2.43-1.555 3.694h-1.28zM161.968 5.168v7.792h-1.215V9.607h-.373q-.745 0-1.15.372-.178.162-.324.454-.146.291-.21.534-.066.243-.17.713-.106.47-.171.697-.113.372-.21.583h-1.313q.243-.405.357-.81.048-.162.154-.6.105-.437.178-.696.073-.26.218-.591.146-.332.34-.543.373-.405.973-.518v-.033q-.746-.146-1.24-.64t-.494-1.288q0-1.02.794-1.636.729-.583 2.17-.583 1.038 0 1.686.146zm-1.215 3.596V5.945q-.211-.064-.535-.064-.713 0-1.183.348-.47.348-.47 1.045 0 .696.51 1.093.511.397 1.192.397zM174.41 2.365h.015q.908 0 1.394.673.486.672.486 1.984 0 1.377-.56 2.033-.558.656-1.368.656-.875 0-1.41-.688-.534-.689-.534-1.985 0-1.296.559-1.984.559-.689 1.417-.689zm-.05.73h-.016q-.47 0-.696.607-.227.607-.227 1.336 0 .762.235 1.353t.705.591q.955 0 .955-1.944t-.955-1.944zm1.685 6.058h-3.353v-.761h3.353zm-8.602 3.807h-1.101V2.155h1.15l1.895 5.086q.875 2.317 1.329 3.775h.016q-.13-2.754-.13-4.957V2.155h1.086V12.96h-1.167l-1.944-5.2q-.583-1.507-1.231-3.678h-.016q.113 2.042.113 5.12zM182.363 12.96h-5.054v-.81l.875-1.199q.696-.972.996-1.41.3-.437.81-1.295.51-.859.721-1.58.21-.72.21-1.417 0-.891-.38-1.385t-1.11-.494q-.68 0-1.523.583l-.307-.94q.858-.713 2.057-.713 1.247 0 1.88.81.631.81.631 2.074 0 1.328-.689 2.673-.688 1.345-1.92 2.997l-.696.972v.032h3.5zM188.195 2.3v1.053q-.307 0-.745.098-2.187.55-2.705 3.807h.048q.68-1.005 1.782-1.005 1.005 0 1.637.875.631.875.631 2.365 0 1.555-.688 2.576-.689 1.02-1.904 1.02-1.344 0-2.057-1.198-.713-1.199-.713-3.094 0-2.884 1.361-4.747.454-.648 1.142-1.077.689-.43 1.418-.575.259-.049.793-.098zm-1.944 9.818h.017q.567 0 .947-.624.381-.624.381-1.904 0-1.166-.38-1.773-.381-.608-1.03-.608-.939 0-1.376 1.134-.081.243-.081.632.016 1.555.429 2.349.413.794 1.093.794zM189.864 2.43h5.07v.745l-3.401 9.785h-1.215l3.337-9.396v-.032h-3.791zM195.955 12.604l.276-.989q.729.438 1.522.438.827 0 1.32-.567.495-.567.495-1.523 0-1.02-.583-1.604-.584-.583-1.54-.583h-.291v-.94h.243q.664 0 1.28-.494.615-.494.615-1.385 0-.777-.38-1.199-.381-.42-1.013-.42-.615 0-1.312.501l-.26-.94q.73-.599 1.88-.599 1.085 0 1.71.68.623.681.623 1.734 0 .81-.405 1.474-.405.665-1.167 1.005v.032q.794.21 1.32.907.527.697.527 1.863 0 1.329-.81 2.212-.81.883-2.203.883-1.15 0-1.847-.486zM203.359 13.09h-.017q-.34 0-.575-.26-.235-.259-.235-.68 0-.405.243-.672.243-.268.584-.268.372 0 .599.26.227.259.227.68 0 .437-.219.689-.219.25-.607.25z" stroke-width=".0162"/></g><g fill="#fff" stroke="#000"><path d="M208.397 12.96V2.203q.81-.21 1.814-.21 1.62 0 2.43.793.794.794.794 2.268 0 1.361-.664 2.236-.421.583-1.118.9-.697.315-1.458.315-.373 0-.55-.016v4.471zm1.247-9.866v4.358q.292.032.502.032.94 0 1.49-.607.552-.608.552-1.742 0-.94-.438-1.53-.437-.592-1.41-.592-.42 0-.696.081zM218.862 9.153h-3.629q.016 2.916 1.847 2.916.745 0 1.296-.292l.21.908q-.664.372-1.733.372-1.377 0-2.106-1.045-.729-1.045-.729-2.891 0-1.896.73-3.014.728-1.117 1.91-1.117 1.119 0 1.677.996.56.996.56 2.454 0 .324-.033.713zm-3.613-.923h2.447q.016-1.102-.333-1.685-.348-.583-.834-.583-.567 0-.899.688-.332.689-.38 1.58zM220.239 5.12h1.215V8.52h.178l2.058-3.402h1.377l-2.447 3.532q1.377.227 1.912 2.22.454 1.62.648 2.089h-1.28q-.162-.389-.567-1.83-.227-.86-.624-1.28-.396-.422-1.125-.422h-.13v3.532h-1.215zM226.913 5.12h4.148v7.84h-1.248V6.14h-1.717v2.495q0 1.879-.26 2.867-.258.988-1.052 1.377-.389.194-.843.194l-.21-.988q.389-.065.648-.356.534-.535.534-3.013zM236.925 7.776v3.402q0 1.28.081 1.782h-1.118l-.08-.826h-.05q-.534.956-1.555.956-.81 0-1.336-.616-.527-.616-.527-1.62 0-1.393.948-2.114.948-.721 2.39-.737V7.76q0-.859-.276-1.32-.275-.462-.972-.462-.713 0-1.296.405l-.275-.875q.729-.518 1.83-.518 2.236 0 2.236 2.786zm-1.215 2.705V8.894q-2.155 0-2.155 1.83 0 .713.284 1.053.283.34.672.34.421 0 .73-.307.307-.308.42-.875.049-.21.049-.454zM238.432 12.96l.55-7.84h1.458l1.037 3.434q.389 1.328.697 2.51h.032q.405-1.603.664-2.51l1.005-3.435h1.49l.535 7.841h-1.167l-.162-3.37q-.08-1.668-.113-3.304h-.032q-.405 1.7-.778 3.013l-1.07 3.612h-.906l-1.021-3.483q-.421-1.506-.794-3.142h-.048q0 1.134-.098 3.37l-.145 3.304zM251.537 7.776v3.402q0 1.28.081 1.782h-1.117l-.081-.826h-.049q-.535.956-1.555.956-.81 0-1.337-.616-.526-.616-.526-1.62 0-1.393.947-2.114.948-.721 2.39-.737V7.76q0-.859-.275-1.32-.276-.462-.972-.462-.713 0-1.296.405l-.276-.875q.73-.518 1.83-.518 2.236 0 2.236 2.786zm-1.215 2.705V8.894q-2.154 0-2.154 1.83 0 .713.283 1.053.284.34.673.34.42 0 .729-.307.307-.308.42-.875.05-.21.05-.454zM254.048 13.09h-.016q-.34 0-.575-.26-.235-.259-.235-.68 0-.405.243-.672.243-.268.583-.268.373 0 .6.26.227.259.227.68 0 .437-.22.689-.218.25-.607.25z" stroke-width=".0162"/></g><g fill="#fff" stroke="#000"><path d="M261.193 13.09h-.017q-1.23 0-1.927-1.41-.697-1.41-.697-3.969 0-2.624.729-4.017.729-1.394 2.041-1.394 1.264 0 1.928 1.418.664 1.417.664 3.96 0 2.739-.753 4.075-.753 1.337-1.968 1.337zm.048-1.07h.016q1.41 0 1.41-4.325 0-1.96-.349-3.143-.348-1.182-1.06-1.182-.73 0-1.094 1.158-.365 1.158-.365 3.167-.016 1.993.34 3.159.357 1.166 1.102 1.166zM268.726 4.325h.923v3.856h3.726v.891h-3.726v3.888h-.923V9.072h-3.71v-.891h3.71z" stroke-width=".0162"/></g></svg>